/* XPM */
static const char *door[] = {
/* columns rows colors chars-per-pixel */
"32 32 28 1 ",
"  c #572019",
". c #521F18",
"X c #441A16",
"o c #29110D",
"O c #331511",
"+ c #501D17",
"@ c #4A1C17",
"# c #3D1915",
"$ c #5C271D",
"% c #5B2219",
"& c #602B20",
"* c #47210C",
"= c #91521F",
"- c #5D2A14",
"; c #69301C",
": c #935B2E",
"> c #683425",
", c #713A26",
"< c #7B4931",
"1 c #57241C",
"2 c #AC7637",
"3 c #312727",
"4 c #7A432E",
"5 c #824B36",
"6 c #5D5B5D",
"7 c #474446",
"8 c #402521",
"9 c #9F6B33",
/* pixels */
"o*****************************#o",
"o::===========================;o",
"o9222222222:9292::::::::::::=:>o",
"o<4,,,;,;;,;;;;;$&%;;$%$;%$;%@Oo",
"o;%     %   %%              .XOo",
"o;%  .........     ..........XOo",
"o-%  ########@     ########@.XOo",
"o-%  #X@+++@1,$    #X@+++@1,1XOo",
"o-%  #X+...+$<$    #X+...+$<$XOo",
"o-%  #X+...+&<$    #X+...+$<$XOo",
"o-%  X.&&&&;,5$    X.$&&&;,5$XOo",
"o-%   %%%%%$$$      %%%%%$$$ XOo",
"o-%  +@@@@@@@@     +@@@@@@@@.XOo",
"o-%  ##XXXXX@&%    ##XXXXX@& XOo",
"o-%  #X+...+$<$    #X+...+$<$XOo",
"o-%88#@. .  ;<$    #X. .  &5$XOo",
"o-8663@&&&&>,4$    +1&&&&>,4$XOo",
"o-3673O.                    .XOo",
"o-3773O.                    .XOo",
"o13333#XXXXX@.     @XXXXXX@..XOo",
"o-+#O#X@@@@@1,$    #X@@@@@1,1XOo",
"o-%.+#X+++++$<$    #X+++++$<$XOo",
"o-%  X1>>>>,<:&    X1;>>>,4:&XOo",
"o-%  .%&&&&;>>%    .%&&&&;>>1XOo",
"o-%  .........      .........XOo",
"o-%  #XXXXXX@$     XXXXXXX@$ XOo",
"o-%  #X+++++$4$    #X+++++14$XOo",
"o-%  #X+...+$<$    #X+...+$<$XOo",
"o-%  #@.... ;<$    #X.... &<$XOo",
"o-% .@$>>,,45:$   .@$>>>,45:&XOo",
"o-.++@......1.+@+++@......1.+XOo",
"oOOOOOOOOOOOOOOOOOOOOOOOOOOOOOoo"
};
