/* XPM */
static const char *enemy_attack2[] = {
/* columns rows colors chars-per-pixel */
"32 32 208 2 ",
"   c #230200",
".  c #2F0000",
"X  c #350200",
"o  c #360400",
"O  c #3A0000",
"+  c #3C0000",
"@  c #3E0901",
"#  c #3E0B10",
"$  c #3D2224",
"%  c #480000",
"&  c #490000",
"*  c #480001",
"=  c #4A0100",
"-  c #4C0000",
";  c #450A04",
":  c #450B09",
">  c #420D09",
",  c #440D0C",
"<  c #480C0C",
"1  c #550000",
"2  c #5E0000",
"3  c #4D110D",
"4  c #4C171D",
"5  c #401F18",
"6  c #511616",
"7  c #5B1513",
"8  c #50181B",
"9  c #57191A",
"0  c #581819",
"q  c #5C1F1A",
"w  c #650000",
"e  c #660000",
"r  c #690000",
"t  c #6C0000",
"y  c #640A0C",
"u  c #700000",
"i  c #690D10",
"p  c #6F1715",
"a  c #661814",
"s  c #621E1B",
"d  c #6E1E1F",
"f  c #781D1C",
"g  c #7D1E1C",
"h  c #46241A",
"j  c #4C271F",
"k  c #52231B",
"l  c #5C231C",
"z  c #501521",
"x  c #6B1927",
"c  c #681529",
"v  c #671E29",
"b  c #721B21",
"n  c #701E24",
"m  c #462A29",
"M  c #542B27",
"N  c #582D27",
"B  c #54252F",
"V  c #592B2E",
"C  c #41332A",
"Z  c #4C2E33",
"A  c #4E2E33",
"S  c #5A2732",
"D  c #5B2D31",
"F  c #423030",
"G  c #463837",
"H  c #493A33",
"J  c #5F3330",
"K  c #543C37",
"L  c #642726",
"P  c #6B2021",
"I  c #6A2721",
"U  c #6B2722",
"Y  c #612828",
"T  c #612E2A",
"R  c #642D28",
"E  c #652F2D",
"W  c #7B2226",
"Q  c #7C222C",
"!  c #702A2D",
"~  c #7D282D",
"^  c #613228",
"/  c #63302C",
"(  c #662730",
")  c #6F2033",
"_  c #792532",
"`  c #772C30",
"'  c #792638",
"]  c #70373E",
"[  c #79333B",
"{  c #743838",
"}  c #6E3F46",
"|  c #564243",
" . c #5F464C",
".. c #624243",
"X. c #754B46",
"o. c #860000",
"O. c #850200",
"+. c #850907",
"@. c #890D18",
"#. c #8C0F1D",
"$. c #801A18",
"%. c #881A1C",
"&. c #951F13",
"*. c #931C18",
"=. c #90191F",
"-. c #911F1F",
";. c #A70000",
":. c #AF0000",
">. c #AE0003",
",. c #A90007",
"<. c #AE050C",
"1. c #B30005",
"2. c #A00316",
"3. c #BE1113",
"4. c #B6151B",
"5. c #88201F",
"6. c #9E271F",
"7. c #861C26",
"8. c #8C1A24",
"9. c #8A1C29",
"0. c #981622",
"q. c #971F29",
"w. c #A51421",
"e. c #AA1123",
"r. c #AE1321",
"t. c #A91521",
"y. c #B51F20",
"u. c #B81C20",
"i. c #8F2829",
"p. c #922020",
"a. c #932121",
"s. c #932322",
"d. c #912024",
"f. c #972524",
"g. c #992726",
"h. c #93252E",
"j. c #96272E",
"k. c #992029",
"l. c #962A28",
"z. c #812331",
"x. c #92373E",
"c. c #9B333A",
"v. c #AC232B",
"b. c #AF262D",
"n. c #BC2224",
"m. c #B4272F",
"M. c #B8202C",
"N. c #BA222E",
"B. c #BD212E",
"V. c #B5292C",
"C. c #B42C2E",
"Z. c #BE2829",
"A. c #A92032",
"S. c #AA2B36",
"D. c #AF2934",
"F. c #AD2B37",
"G. c #A92F3C",
"H. c #A92F3E",
"J. c #B52431",
"K. c #B52932",
"L. c #B42B35",
"P. c #BC2834",
"I. c #BE2C36",
"U. c #A73437",
"Y. c #A13A3D",
"T. c #CB1D1C",
"R. c #D7151D",
"E. c #C7221C",
"W. c #D2201C",
"Q. c #D4221E",
"!. c #D6231E",
"~. c #C91F28",
"^. c #D71425",
"/. c #D61E26",
"(. c #DA1A25",
"). c #DD1E25",
"_. c #D41C28",
"`. c #DA1B2A",
"'. c #D91F2A",
"]. c #E11E24",
"[. c #C82A21",
"{. c #C5262A",
"}. c #CC232A",
"|. c #CE242D",
" X c #CB2C29",
".X c #D22222",
"XX c #D52120",
"oX c #D62223",
"OX c #D92524",
"+X c #D1242A",
"@X c #D1262E",
"#X c #DB232F",
"$X c #DA2828",
"%X c #C92530",
"&X c #C32933",
"*X c #C32C33",
"=X c #C22A36",
"-X c #CF2933",
";X c #D32735",
":X c #D72535",
">X c #DB2031",
",X c #D82731",
"<X c #D32838",
"1X c #D72D38",
"2X c #8A2E43",
"3X c #B92E41",
"4X c #BB3341",
"5X c None",
/* pixels */
"5X5X5X5X5X5X5X5X5X5X5X5X5X5X5X5X5X5X5X5X5X5X5X5X5X5X5X5X5X5X5X5X",
"5X5X5X5X5X5X5X5X5X5X5X5X5X5X5X5X5X5X5X5X5X5X5X5X5X5X5X5X5X5X5X5X",
"5X5X5X5X5X5X5X5X5X5X5X5X5X5X5X5X5X5X5X5X5X5X5X5X5X5X5X5X5X5X5X5X",
"5X5X5X5X5X5X5X5X5X5X5X5X5X5X5X5X5X5X5X5X5X5X5X5X5X5X5X5X5X5X5X5X",
"5X5X5X5X5X5X5X5X5X5X5X5X5X5X5X5X5X5X5X5X5X5X5X5X5X5X5X5X5X5X5X5X",
"5X5X5X5X5X5X5X5X5X5X5X5X5X5X5X5X5X5X5X5X5X5X5X5X5X5X5X5X5X5X5X5X",
"5X5X5X5X5X5X5X5X5X5X5X5X5X5X5X5X5X5X5X5X5X5X5X5X5X5X5X5X5X5X5X5X",
"5X5X5X5X5X5X5X5X5X5X5X5X5X5X5X5X5X5X5X5X5X5X5X5X5X5X5X5X5X5X5X5X",
"5X5X5X5X5X5X5X5X5X5X5X5X5X5X5X5X5X5X5X5X5X5X5X5X5X5X5X5X5X5X5X5X",
"5X5X5X..5X5X5X5X5X5X5X5X5X5X5X5X5X5X5X5X5X5X5X5X5X5X5X5X5X5X5X5X",
"5X5Xz v 0 5X5X5X5X5X5X5X5X5X5X5X5X5X5X5X5X5X5X5X5X5X5X5X5X5X5X5X",
"5X5X5X_ x.i y ~ 5X5X5X5X5X5X5X, 3 5X5X5X5X5X5X5X5X5X5X5X5X5X5X5X",
"5X5X5X< c.S.F.4X3X9.5X5X5Xh.F.J.P.L.8.n 5X5X5X5X5X5X5XH 5X5X5X5X",
"5X5X5XX w w.I.t.e.0.% a =.=X;X#X'.,XB.q.! 5X5X5XX.5X/ j C 5X5X5X",
"5X5X5X> k.O.+.u r 2 1 g.*X<.3..XW.T.,.K.W Y 5X{ 7.#.j.d   5X5X5X",
"5X5X5X7 b.u.O.&.6.*.t C.~.1.:.Q.Q.;.:.&XY.+ : ` G.A.G.b 5 5X5X5X",
"5X5X6 i.{.oXE.[. Xy.u V.:X^.(.).].R.`.%XU.% ; L Q z.x ] 5X5X5X5X",
"5X5XT g Z.$XoXOX/.4.w p.M.<X1X}.@X|.-Xm.$.% 5XE 8 4 } 5X5X5X5X5X",
"5X5X5X^ f.n.+X_.>XM.O O f d.-.p.p.l.5.p . o 9 5X5X5X5X5X5X5X5X5X",
"5X5X5X5XU %.v.r.2.@.@ 5X5X5Xs U q l R k h J [ ( 5X5X5X5X5X5X5X5X",
"5X5X5X5X5XN P - % % M 5X5X5X5X5X5X5X5X5X5XD 2X' 5X5X5X5X5X5X5X5X",
"5X5X5X5X5X5XK 5X# V m 5X5X5X5X5X5X5X5X5X5X5Xc ) $ 5X5X5X5X5X5X5X",
"5X5X5X5X5X5X5X5XZ Z G 5X5X5X5X5X5X5X5X5X5X5XS B F 5X5X5X5X5X5X5X",
"5X5X5X5X5X5X5X5X5X .5X5X5X5X5X5X5X5X5X5X5X5X5X| 5X5X5X5X5X5X5X5X",
"5X5X5X5X5X5X5X5X5X5X5X5X5X5X5X5X5X5X5X5X5X5X5X5X5X5X5X5X5X5X5X5X",
"5X5X5X5X5X5X5X5X5X5X5X5X5X5X5X5X5X5X5X5X5X5X5X5X5X5X5X5X5X5X5X5X",
"5X5X5X5X5X5X5X5X5X5X5X5X5X5X5X5X5X5X5X5X5X5X5X5X5X5X5X5X5X5X5X5X",
"5X5X5X5X5X5X5X5X5X5X5X5X5X5X5X5X5X5X5X5X5X5X5X5X5X5X5X5X5X5X5X5X",
"5X5X5X5X5X5X5X5X5X5X5X5X5X5X5X5X5X5X5X5X5X5X5X5X5X5X5X5X5X5X5X5X",
"5X5X5X5X5X5X5X5X5X5X5X5X5X5X5X5X5X5X5X5X5X5X5X5X5X5X5X5X5X5X5X5X",
"5X5X5X5X5X5X5X5X5X5X5X5X5X5X5X5X5X5X5X5X5X5X5X5X5X5X5X5X5X5X5X5X",
"5X5X5X5X5X5X5X5X5X5X5X5X5X5X5X5X5X5X5X5X5X5X5X5X5X5X5X5X5X5X5X5X"
};
