/* XPM */
static const char *enemy4[] = {
/* columns rows colors chars-per-pixel */
"32 32 170 2 ",
"   c #270200",
".  c #2E0000",
"X  c #2D0200",
"o  c #2D0800",
"O  c #300000",
"+  c #320000",
"@  c #320100",
"#  c #330301",
"$  c #340000",
"%  c #370000",
"&  c #3B0000",
"*  c #3E0000",
"=  c #3F0000",
"-  c #3C0003",
";  c #340805",
":  c #340B07",
">  c #3D0A07",
",  c #3A0F06",
"<  c #34050B",
"1  c #391404",
"2  c #3D1A07",
"3  c #3E1B22",
"4  c #430000",
"5  c #450000",
"6  c #4B040A",
"7  c #520F06",
"8  c #461103",
"9  c #411508",
"0  c #47150A",
"q  c #50160B",
"w  c #500917",
"e  c #500F16",
"r  c #461010",
"t  c #54151D",
"y  c #56141F",
"u  c #531E1A",
"i  c #5A191D",
"p  c #700B11",
"a  c #601F1D",
"s  c #751014",
"d  c #751519",
"f  c #482219",
"g  c #4F221C",
"h  c #501E27",
"j  c #551C25",
"k  c #5E1828",
"l  c #6D1626",
"z  c #641E20",
"x  c #661B2F",
"c  c #6B1E2E",
"v  c #432025",
"b  c #472A26",
"n  c #402E2C",
"m  c #522125",
"M  c #512026",
"N  c #53242A",
"B  c #53242E",
"V  c #50272F",
"C  c #54272E",
"Z  c #5C252B",
"A  c #5C272C",
"S  c #562A29",
"D  c #582E2F",
"F  c #51342C",
"G  c #5C332F",
"H  c #592A34",
"J  c #543233",
"K  c #5F303A",
"L  c #523C3F",
"P  c #672123",
"I  c #6D2526",
"U  c #622A29",
"Y  c #632D2D",
"T  c #69282E",
"R  c #7A202A",
"E  c #7C2128",
"W  c #7D2428",
"Q  c #7E2829",
"!  c #76302E",
"~  c #702230",
"^  c #7D2130",
"/  c #7E2730",
"(  c #6D343B",
")  c #7A3B31",
"_  c #74373E",
"`  c #713E3A",
"'  c #7D3042",
"]  c #7E3443",
"[  c #5F4548",
"{  c #6B4844",
"}  c #9A0001",
"|  c #801215",
" . c #9B181D",
".. c #A20000",
"X. c #A30000",
"o. c #A70003",
"O. c #AC0000",
"+. c #84211B",
"@. c #87241F",
"#. c #961D26",
"$. c #A81A26",
"%. c #A61C29",
"&. c #A61E2A",
"*. c #8C2127",
"=. c #812228",
"-. c #872B2E",
";. c #922127",
":. c #9B2025",
">. c #92272F",
",. c #9B222B",
"<. c #99242C",
"1. c #9E252C",
"2. c #862133",
"3. c #862530",
"4. c #8B2733",
"5. c #812A32",
"6. c #9F2733",
"7. c #942A34",
"8. c #922C36",
"9. c #A02223",
"0. c #A0212C",
"q. c #B6252A",
"w. c #B4242E",
"e. c #B5252E",
"r. c #B8222D",
"t. c #B52B2B",
"y. c #A12432",
"u. c #A62539",
"i. c #A22F3E",
"p. c #BE2632",
"a. c #B92C35",
"s. c #B62C39",
"d. c #A4303D",
"f. c #D51918",
"g. c #D5181F",
"h. c #D81C1D",
"j. c #C71A20",
"k. c #C01D2E",
"l. c #DC1D24",
"z. c #D21929",
"x. c #D41E2B",
"c. c #E21D26",
"v. c #C52024",
"b. c #CC2127",
"n. c #CC2626",
"m. c #C7232A",
"M. c #CB212A",
"N. c #CA252C",
"B. c #D82022",
"V. c #D0202D",
"C. c #DC202F",
"Z. c #CA2535",
"A. c #C12E36",
"S. c #D22030",
"D. c #D62630",
"F. c #D22831",
"G. c #D02A36",
"H. c #D02F37",
"J. c #E02629",
"K. c #853744",
"L. c #A63141",
"P. c #A73841",
"I. c #957164",
"U. c #B58C89",
"Y. c #A99A9A",
"T. c #BCA1A2",
"R. c #BEA5A8",
"E. c #C39E98",
"W. c #C7A099",
"Q. c None",
/* pixels */
"Q.Q.Q.Q.Q.Q.Q.Q.Q.Q.Q.Q.Q.Q.Q.Q.Q.Q.Q.Q.Q.Q.Q.Q.Q.Q.Q.Q.Q.Q.Q.Q.",
"Q.Q.Q.Q.Q.Q.Q.Q.Q.Q.Q.Q.Q.Q.Q.Q.Q.Q.Q.Q.Q.Q.Q.Q.Q.Q.Q.Q.Q.Q.Q.Q.",
"Q.Q.Q.Q.Q.Q.Q.Q.Q.Q.Q.Q.Q.Q.Q.Q.Q.Q.Q.Q.Q.Q.Q.Q.Q.Q.Q.Q.Q.Q.Q.Q.",
"Q.Q.Q.Q.Q.Q.Q.Q.Q.Q.Q.Q.Q.Q.Q.Q.Q.Q.Q.Q.Q.Q.Q.Q.Q.Q.Q.Q.Q.Q.Q.Q.",
"Q.Q.Q.Q.Q.Q.Q.Q.Q.Q.Q.Q.Q.Q.Q.Q.Q.Q.Q.Q.Q.Q.Q.Q.Q.Q.Q.Q.Q.Q.Q.Q.",
"Q.Q.Q.Q.Q.Q.Q.Q.Q.Q.Q.Q.Q.Q.Q.Q.Q.Q.Q.Q.Q.Q.Q.Q.Q.Q.Q.Q.Q.Q.Q.Q.",
"Q.Q.Q.Q.Q.Q.Q.Q.Q.Q.Q.Q.Q.Q.Q.Q.Q.Q.Q.Q.Q.Q.Q.Q.Q.Q.Q.Q.Q.Q.Q.Q.",
"Q.Q.Q.Q.Q.Q.Q.Q.Q.Q.Q.Q.Q.Q.Q.Q.Q.Q.Q.Q.Q.Q.Q.Q.Q.Q.Q.Q.Q.Q.Q.Q.",
"Q.Q.Q.Q.Q.Q.Q.Q.Q.Q.Q.Q.Q.Q.Q.Q.Q.Q.Q.Q.Q.Q.Q.Q.Q.Q.Q.Q.Q.Q.Q.Q.",
"Q.Q.Q.Q.Q.Q.Q.Q.Q.Q.Q.Q.Q.Q.Q.Q.Q.Q.Q.Q.Q.Q.Q.Q.Q.Q.Q.Q.Q.Q.Q.Q.",
"Q.Q.Q.Q.Q.Q.Q.Q.Q.Q.Q.Q.Q.Q.Q.Q.Q.Q.Q.Q.Q.Q.Q.Q.Q.Q.Q.Q.Q.Q.Q.Q.",
"Q.Q.Q.Q.Q.Q.Q.Q.Q.Q.Q.Q.Q.Q.Q.Q.Q.Q.Q.Q.Q.Q.Q.Q.Q.Q.Q.Q.Q.Q.Q.Q.",
"Q.Q.Q.L Q.Q.Q.Q.Q.Q.Q.Q.< - - 5 $ M Q.Q.Q.Q.Q.Q.Q.Q.Q.Q.Q.Q.Q.Q.",
"Q.Q.C Z S E.{ Q.Q.Q.Q.T 5.>.1.:.<.-.` Q.Q.Q.Q.Q.Q.Q.Q.Q.Q.Q.Q.Q.",
"Q.Q.6 4.7.p =.! Q.W.E y.s.p.F.D.M.q.@.) Q.Q.Q.Q.Q.8.z Q.Q.Q.Q.Q.",
"Q.Q.i 3.d.6.P.Q 9 q 0.k.} j.l.c.g.o.t.+.8 0 W L.u.i.P Q.Q.Q.Q.Q.",
"Q.Q.R.N ~ ^ R I 1 - r.z.....f.h.O...m.9.. 2 a / 2.l Q.Q.Q.Q.Q.Q.",
"Q.Q.Q.Y.V j t U I.7 e.V.v.n.B.J.b.N.G. .$ Q.u e t Q.Q.Q.Q.Q.Q.Q.",
"Q.Q.Q.Q.Q.Q.Q.U.f @ ;.a.A.H.x.C.S.Z.e.| @ , r Q.Q.Q.Q.Q.Q.Q.Q.Q.",
"Q.Q.Q.Q.Q.Q.Q.D Y - 4 d *.#.%.$.%.,.s - g G _ A Q.Q.Q.Q.Q.Q.Q.Q.",
"Q.Q.Q.Q.Q.Q.J ( K.& . ; ; @ > @ . o   F Q.b ] ' v Q.Q.Q.Q.Q.Q.Q.",
"Q.Q.Q.Q.Q.Q.T.M c w Q.Q.Q.Q.Q.Q.Q.Q.Q.Q.Q.Q.k x 3 Q.Q.Q.Q.Q.Q.Q.",
"Q.Q.Q.Q.Q.Q.Q.n h K Q.Q.Q.Q.Q.Q.Q.Q.Q.Q.Q.Q.H V Q.Q.Q.Q.Q.Q.Q.Q.",
"Q.Q.Q.Q.Q.Q.Q.Q.[ Q.Q.Q.Q.Q.Q.Q.Q.Q.Q.Q.Q.Q.Q.Q.Q.Q.Q.Q.Q.Q.Q.Q.",
"Q.Q.Q.Q.Q.Q.Q.Q.Q.Q.Q.Q.Q.Q.Q.Q.Q.Q.Q.Q.Q.Q.Q.Q.Q.Q.Q.Q.Q.Q.Q.Q.",
"Q.Q.Q.Q.Q.Q.Q.Q.Q.Q.Q.Q.Q.Q.Q.Q.Q.Q.Q.Q.Q.Q.Q.Q.Q.Q.Q.Q.Q.Q.Q.Q.",
"Q.Q.Q.Q.Q.Q.Q.Q.Q.Q.Q.Q.Q.Q.Q.Q.Q.Q.Q.Q.Q.Q.Q.Q.Q.Q.Q.Q.Q.Q.Q.Q.",
"Q.Q.Q.Q.Q.Q.Q.Q.Q.Q.Q.Q.Q.Q.Q.Q.Q.Q.Q.Q.Q.Q.Q.Q.Q.Q.Q.Q.Q.Q.Q.Q.",
"Q.Q.Q.Q.Q.Q.Q.Q.Q.Q.Q.Q.Q.Q.Q.Q.Q.Q.Q.Q.Q.Q.Q.Q.Q.Q.Q.Q.Q.Q.Q.Q.",
"Q.Q.Q.Q.Q.Q.Q.Q.Q.Q.Q.Q.Q.Q.Q.Q.Q.Q.Q.Q.Q.Q.Q.Q.Q.Q.Q.Q.Q.Q.Q.Q.",
"Q.Q.Q.Q.Q.Q.Q.Q.Q.Q.Q.Q.Q.Q.Q.Q.Q.Q.Q.Q.Q.Q.Q.Q.Q.Q.Q.Q.Q.Q.Q.Q.",
"Q.Q.Q.Q.Q.Q.Q.Q.Q.Q.Q.Q.Q.Q.Q.Q.Q.Q.Q.Q.Q.Q.Q.Q.Q.Q.Q.Q.Q.Q.Q.Q."
};
