/* XPM */
static const char *enemy1[] = {
/* columns rows colors chars-per-pixel */
"32 32 166 2 ",
"   c #220200",
".  c #2F0000",
"X  c #370000",
"o  c #360400",
"O  c #3C0000",
"+  c #3F0000",
"@  c #340B05",
"#  c #2D1611",
"$  c #361E1E",
"%  c #3C2324",
"&  c #3F2526",
"*  c #470000",
"=  c #490000",
"-  c #4A0100",
";  c #4C0000",
":  c #4E0003",
">  c #450A04",
",  c #450C05",
"<  c #450A08",
"1  c #450B09",
"2  c #430C09",
"3  c #4E0E0A",
"4  c #500E0D",
"5  c #4B110D",
"6  c #491218",
"7  c #4C171D",
"8  c #401F18",
"9  c #50181B",
"0  c #57191A",
"q  c #531B1F",
"w  c #5C1F1A",
"e  c #5F1A1D",
"r  c #6F1715",
"t  c #6E1E1F",
"y  c #7E1E1F",
"u  c #46241A",
"i  c #4B241F",
"p  c #4C271F",
"a  c #52231B",
"s  c #5C231C",
"d  c #5A251F",
"f  c #61221D",
"g  c #63241F",
"h  c #561A22",
"j  c #511F2A",
"k  c #631427",
"l  c #6B1927",
"z  c #681529",
"x  c #721B21",
"c  c #721E2D",
"v  c #432B2B",
"b  c #522A22",
"n  c #5A2A26",
"m  c #54252F",
"M  c #572A2D",
"N  c #5D2A29",
"B  c #41322A",
"V  c #432F30",
"C  c #592732",
"Z  c #5B2D30",
"A  c #5B2934",
"S  c #433030",
"D  c #493A33",
"F  c #4C3831",
"G  c #5F3330",
"H  c #602320",
"J  c #622524",
"K  c #642726",
"L  c #642D28",
"P  c #602E2D",
"I  c #672F2D",
"U  c #6B2E2B",
"Y  c #6D2B2D",
"T  c #7B2226",
"R  c #7F2026",
"E  c #7C222C",
"W  c #662730",
"Q  c #6B2132",
"!  c #6F2033",
"~  c #6A2631",
"^  c #772C30",
"/  c #782C30",
"(  c #792638",
")  c #7C2B3C",
"_  c #743537",
"`  c #7A333B",
"'  c #693841",
"]  c #564243",
"[  c #5A4144",
"{  c #7A4B45",
"}  c #930F1D",
"|  c #801A18",
" . c #861819",
".. c #841E1C",
"X. c #A70000",
"o. c #AB0000",
"O. c #AE0003",
"+. c #AF0003",
"@. c #A90007",
"#. c #A90008",
"$. c #88201F",
"%. c #861724",
"&. c #8C1A24",
"*. c #961E28",
"=. c #971F29",
"-. c #9A1E28",
";. c #B01E33",
":. c #822629",
">. c #81212F",
",. c #802B2E",
"<. c #932322",
"1. c #952323",
"2. c #96272E",
"3. c #962A28",
"4. c #9C2A2A",
"5. c #812331",
"6. c #9A2830",
"7. c #80333D",
"8. c #9C373B",
"9. c #B4272F",
"0. c #BB232F",
"q. c #BD212E",
"w. c #BD212F",
"e. c #A92032",
"r. c #A92F3C",
"t. c #A92F3E",
"y. c #AD2F3D",
"u. c #B22631",
"i. c #BF2733",
"p. c #B52932",
"a. c #B42B35",
"s. c #BD2D36",
"d. c #B12E3E",
"f. c #A53436",
"g. c #A73437",
"h. c #A13A3D",
"j. c #BC303B",
"k. c #CC191C",
"l. c #CB1D1C",
"z. c #D7151D",
"x. c #D7151E",
"c. c #D41E1B",
"v. c #D3201B",
"b. c #D8231C",
"n. c #D9221E",
"m. c #DA1B2A",
"M. c #DC1E28",
"N. c #E21D24",
"B. c #E21F25",
"V. c #C6222D",
"C. c #CF212A",
"Z. c #CE242D",
"A. c #D6222E",
"S. c #D3252E",
"D. c #D1262F",
"F. c #C02630",
"G. c #C92530",
"H. c #C32933",
"J. c #CF2933",
"K. c #D82731",
"L. c #D22B35",
"P. c #E3232E",
"I. c #862D41",
"U. c #8A2E43",
"Y. c #A76965",
"T. c None",
/* pixels */
"T.T.T.T.T.T.T.T.T.T.T.T.T.T.T.T.T.T.T.T.T.T.T.T.T.T.T.T.T.T.T.T.",
"T.T.T.T.T.T.T.T.T.T.T.T.T.T.T.T.T.T.T.T.T.T.T.T.T.T.T.T.T.T.T.T.",
"T.T.T.T.T.T.T.T.T.T.T.T.T.T.T.T.T.T.T.T.T.T.T.T.T.T.T.T.T.T.T.T.",
"T.T.T.T.T.T.T.T.T.T.T.T.T.T.T.T.T.T.T.T.T.T.T.T.T.T.T.T.T.T.T.T.",
"T.T.T.T.T.T.T.T.T.T.T.T.T.T.T.T.T.T.T.T.T.T.T.T.T.T.T.T.T.T.T.T.",
"T.T.T.T.T.T.T.T.T.T.T.T.T.T.T.T.T.T.T.T.T.T.T.T.T.T.T.T.T.T.T.T.",
"T.T.T.T.T.T.T.T.T.T.T.T.T.T.T.T.T.T.T.T.T.T.T.T.T.T.T.T.T.T.T.T.",
"T.T.T.T.T.T.T.T.T.T.T.T.T.T.T.T.T.T.T.T.T.T.T.T.T.T.T.T.T.T.T.T.",
"T.T.T.T.T.T.T.T.T.T.T.T.T.T.T.T.T.T.T.T.T.T.T.T.T.T.T.T.T.T.T.T.",
"T.T.T.T.T.T.T.T.T.T.T.T.T.T.T.T.T.T.T.T.T.T.T.T.T.T.T.T.T.T.T.T.",
"T.T.T.T.T.T.T.T.T.T.T.T.T.T.T.T.T.T.T.T.T.T.T.T.T.T.T.T.T.T.T.T.",
"T.T.T.T.T.T.T.T.T.T.T.T.T.T.5 3 4 1 T.T.T.T.T.T.T.T.T.T.T.T.T.T.",
"T.T.T.T.# T.T.T.T.T.T.T.: 6.u.0.i.a.&.T.T.T.T.T.T.T.T.D T.T.T.T.",
"T.T.T.F n U T.{ T.T.T.Y *.w.A.P.M.K.w.*.T.T.T.T.T.T.T.p B T.T.T.",
"T.T.T.@ :.-.} %._ T.N ,.j.#.k.c.v.l.@.p.T T.T.T.T.T.2.t   T.T.T.",
"T.T.T.i R d.;.y./ 2 O 8.F.+.o.n.n.X.+.H.h.O 1 ^ r.e.r.x 8 T.T.T.",
"T.T.T.T.h c >.E J , : f.V.m.x.B.B.x.m.G.f.- > K E 5.l T.T.T.T.T.",
"T.T.T.T.T.' 6 q I Y.* ..s.L.D.C.D.Z.J.9.| - T.T.9 7 T.T.T.T.T.T.",
"T.T.T.T.T.T.T.T.T.e X O y  .4.1.<.3.$.r . o 0 T.T.T.T.T.T.T.T.T.",
"T.T.T.T.T.T.T.T.~ 7.P b d H f g w s L a u G ` W T.T.T.T.T.T.T.T.",
"T.T.T.T.T.T.T.v ) I.M T.T.T.T.T.T.T.T.T.T.Z U.( & T.T.T.T.T.T.T.",
"T.T.T.T.T.T.T.$ Q k T.T.T.T.T.T.T.T.T.T.T.T.z ! % T.T.T.T.T.T.T.",
"T.T.T.T.T.T.T.V j A T.T.T.T.T.T.T.T.T.T.T.T.C m S T.T.T.T.T.T.T.",
"T.T.T.T.T.T.T.T.[ T.T.T.T.T.T.T.T.T.T.T.T.T.T.] T.T.T.T.T.T.T.T.",
"T.T.T.T.T.T.T.T.T.T.T.T.T.T.T.T.T.T.T.T.T.T.T.T.T.T.T.T.T.T.T.T.",
"T.T.T.T.T.T.T.T.T.T.T.T.T.T.T.T.T.T.T.T.T.T.T.T.T.T.T.T.T.T.T.T.",
"T.T.T.T.T.T.T.T.T.T.T.T.T.T.T.T.T.T.T.T.T.T.T.T.T.T.T.T.T.T.T.T.",
"T.T.T.T.T.T.T.T.T.T.T.T.T.T.T.T.T.T.T.T.T.T.T.T.T.T.T.T.T.T.T.T.",
"T.T.T.T.T.T.T.T.T.T.T.T.T.T.T.T.T.T.T.T.T.T.T.T.T.T.T.T.T.T.T.T.",
"T.T.T.T.T.T.T.T.T.T.T.T.T.T.T.T.T.T.T.T.T.T.T.T.T.T.T.T.T.T.T.T.",
"T.T.T.T.T.T.T.T.T.T.T.T.T.T.T.T.T.T.T.T.T.T.T.T.T.T.T.T.T.T.T.T.",
"T.T.T.T.T.T.T.T.T.T.T.T.T.T.T.T.T.T.T.T.T.T.T.T.T.T.T.T.T.T.T.T."
};
