/* XPM */
static const char *enemy_attack3[] = {
/* columns rows colors chars-per-pixel */
"32 32 165 2 ",
"   c #2F0000",
".  c #290700",
"X  c #360400",
"o  c #3C0000",
"O  c #3E0000",
"+  c #3F1810",
"@  c #381C10",
"#  c #361E1B",
"$  c #3C1A19",
"%  c #3D2521",
"&  c #450000",
"*  c #450100",
"=  c #490000",
"-  c #4A0100",
";  c #4D0300",
":  c #450A04",
">  c #4B0B02",
",  c #440A08",
"<  c #450B09",
"1  c #430D0B",
"2  c #520002",
"3  c #510B03",
"4  c #530908",
"5  c #520E0B",
"6  c #4D190B",
"7  c #551108",
"8  c #5D1717",
"9  c #5B1810",
"0  c #521419",
"q  c #5A1518",
"w  c #561A1A",
"e  c #541C18",
"r  c #53191F",
"t  c #5B1F1F",
"y  c #5C1F1C",
"u  c #630C14",
"i  c #6F1715",
"p  c #6E1E1F",
"a  c #7F1519",
"s  c #46241A",
"d  c #4E211B",
"f  c #4D261E",
"g  c #52231B",
"h  c #5C231C",
"j  c #631926",
"k  c #6B1927",
"l  c #671B28",
"z  c #721B21",
"x  c #751F20",
"c  c #701F25",
"v  c #4F2227",
"b  c #572622",
"n  c #532024",
"m  c #572524",
"M  c #5E2826",
"N  c #54252F",
"B  c #44322E",
"V  c #582B32",
"C  c #4A3934",
"Z  c #5F3330",
"A  c #5D3133",
"S  c #583D3D",
"D  c #622021",
"F  c #642422",
"G  c #642726",
"H  c #6B2027",
"J  c #602827",
"K  c #68222D",
"L  c #61292A",
"P  c #642D28",
"I  c #7B2226",
"U  c #7C222C",
"Y  c #712A2E",
"T  c #6C332C",
"R  c #7D332A",
"E  c #6F2033",
"W  c #7F2737",
"Q  c #772C30",
"!  c #792638",
"~  c #663D39",
"^  c #653B3D",
"/  c #7A333B",
"(  c #743838",
")  c #594547",
"_  c #61434A",
"`  c #764C47",
"'  c #8C0F1D",
"]  c #801A18",
"[  c #A70000",
"{  c #AE0003",
"}  c #A80007",
"|  c #A90007",
" . c #B30C1D",
".. c #88201F",
"X. c #871C26",
"o. c #8B1E23",
"O. c #8C1A24",
"+. c #921E21",
"@. c #9F1920",
"#. c #991E20",
"$. c #971F29",
"%. c #B71E21",
"&. c #B41A24",
"*. c #85292E",
"=. c #872B2E",
"-. c #922221",
";. c #912322",
":. c #992623",
">. c #962926",
",. c #972628",
"<. c #91262E",
"1. c #96272E",
"2. c #962A28",
"3. c #812331",
"4. c #83313F",
"5. c #85333F",
"6. c #A52E28",
"7. c #BB2B23",
"8. c #B4272F",
"9. c #B92229",
"0. c #BD212E",
"q. c #A92032",
"w. c #AD2B37",
"e. c #A92C34",
"r. c #A92F3C",
"t. c #A92F3E",
"y. c #B32231",
"u. c #B52932",
"i. c #B42B35",
"p. c #BC2C36",
"a. c #A73437",
"s. c #A13A3D",
"d. c #CB1D1C",
"f. c #D7151D",
"g. c #D91819",
"h. c #D2201E",
"j. c #C51623",
"k. c #DA1727",
"l. c #D41B21",
"z. c #D81F24",
"x. c #DC1F25",
"c. c #DA1B2A",
"v. c #E01F24",
"b. c #CA2627",
"n. c #C62825",
"m. c #C4232B",
"M. c #CE242D",
"N. c #C1282D",
"B. c #C12D2D",
"V. c #CE2A2B",
"C. c #D52321",
"Z. c #DA2627",
"A. c #D0202A",
"S. c #D0272C",
"D. c #D8272F",
"F. c #C12530",
"G. c #C92530",
"H. c #C32933",
"J. c #CF2933",
"K. c #CF2A3B",
"L. c #D32433",
"P. c #D82731",
"I. c #D82A34",
"U. c #8A2E43",
"Y. c None",
/* pixels */
"Y.Y.Y.Y.Y.Y.Y.Y.Y.Y.Y.Y.Y.Y.Y.Y.Y.Y.Y.Y.Y.Y.Y.Y.Y.Y.Y.Y.Y.Y.Y.Y.",
"Y.Y.Y.Y.Y.Y.Y.Y.Y.Y.Y.Y.Y.Y.Y.Y.Y.Y.Y.Y.Y.Y.Y.Y.Y.Y.Y.Y.Y.Y.Y.Y.",
"Y.Y.Y.Y.Y.Y.Y.Y.Y.Y.Y.Y.Y.Y.Y.Y.Y.Y.Y.Y.Y.Y.Y.Y.Y.Y.Y.Y.Y.Y.Y.Y.",
"Y.Y.Y.Y.Y.Y.Y.Y.Y.Y.Y.Y.Y.Y.Y.Y.Y.Y.Y.Y.Y.Y.Y.Y.Y.Y.Y.Y.Y.Y.Y.Y.",
"Y.Y.Y.Y.Y.Y.Y.Y.Y.Y.Y.Y.Y.Y.Y.Y.Y.Y.Y.Y.Y.Y.Y.Y.Y.Y.Y.Y.Y.Y.Y.Y.",
"Y.Y.Y.Y.Y.Y.Y.Y.Y.Y.Y.Y.Y.Y.Y.Y.Y.Y.Y.Y.Y.Y.Y.Y.Y.Y.Y.Y.Y.Y.Y.Y.",
"Y.Y.Y.Y.Y.Y.Y.Y.Y.Y.Y.Y.Y.Y.Y.Y.Y.Y.Y.Y.Y.Y.Y.Y.Y.Y.Y.Y.Y.Y.Y.Y.",
"Y.Y.Y.Y.Y.Y.Y.Y.Y.Y.Y.Y.Y.Y.Y.Y.Y.Y.Y.Y.Y.Y.Y.Y.Y.Y.Y.Y.Y.Y.Y.Y.",
"Y.Y.Y.Y.Y.Y.Y.Y.Y.Y.Y.Y.Y.Y.Y.Y.Y.Y.Y.Y.Y.Y.Y.Y.Y.Y.Y.Y.Y.Y.Y.Y.",
"Y.Y.Y.Y.Y.Y.Y.Y.Y.Y.Y.Y.Y.Y.Y.Y.Y.Y.Y.Y.Y.Y.Y.Y.Y.Y.Y.Y.Y.Y.Y.Y.",
"Y.Y.Y.S Y.Y.^ Y.Y.Y.Y.Y.Y.Y.Y.Y.Y.Y.Y.Y.Y.Y.Y.Y.Y.Y.Y.Y.Y.Y.Y.Y.",
"Y.Y.$ d 6 7 *.u n Y.Y.Y.Y.M > 3 5 < ~ Y.Y.Y.Y.Y.Y.Y.Y.Y.Y.Y.Y.Y.",
"Y.Y.+ R 6.B.m.p.*.m Y.Y.; :.7.n.N.i.O.c Y.Y.Y.Y.Y.Y.Y.C Y.Y.Y.Y.",
"Y.Y.Y.9 #.9.&.@.x e Y.T ,.%.Z.g.x.P.0.$.Y Y.Y.Y.` Y.Y.f Y.Y.Y.Y.",
"Y.Y.Y.Y.r H q 1 @ . 8 <.y. .j.D.h.d.} u.I J Y.( X.' 1.p Y.Y.Y.Y.",
"Y.Y.Y.Y.Y._ Y.Y.Y.Y.2 w.K.} } A.C.[ { H.s.O < Q r.q.r.z Y.Y.Y.Y.",
"Y.Y.Y.Y.Y.Y.Y.Y.Y.Y.4 e.L.k.l.z.v.f.c.G.a.- : G U 3.k Y.Y.Y.Y.Y.",
"Y.Y.Y.Y.Y.Y.Y.Y.Y.Y.& o.F.I.V.b.S.M.J.8.] - Y.Y.Y.Y.Y.Y.Y.Y.Y.Y.",
"Y.Y.Y.Y.Y.Y.Y.Y.Y.0 O & a +.-.>.-.2...i   X w Y.Y.Y.Y.Y.Y.Y.Y.Y.",
"Y.Y.Y.Y.Y.Y.Y.Y.K 5.L b t D D F y h P g s A / Y.Y.Y.Y.Y.Y.Y.Y.Y.",
"Y.Y.Y.Y.Y.Y.Y.% 4.W A Y.Y.Y.Y.Y.Y.Y.Y.Y.Y.Y.U.! Y.Y.Y.Y.Y.Y.Y.Y.",
"Y.Y.Y.Y.Y.Y.Y.# j l Y.Y.Y.Y.Y.Y.Y.Y.Y.Y.Y.Y.Y.E Y.Y.Y.Y.Y.Y.Y.Y.",
"Y.Y.Y.Y.Y.Y.Y.B v V Y.Y.Y.Y.Y.Y.Y.Y.Y.Y.Y.Y.Y.N Y.Y.Y.Y.Y.Y.Y.Y.",
"Y.Y.Y.Y.Y.Y.Y.Y.) Y.Y.Y.Y.Y.Y.Y.Y.Y.Y.Y.Y.Y.Y.Y.Y.Y.Y.Y.Y.Y.Y.Y.",
"Y.Y.Y.Y.Y.Y.Y.Y.Y.Y.Y.Y.Y.Y.Y.Y.Y.Y.Y.Y.Y.Y.Y.Y.Y.Y.Y.Y.Y.Y.Y.Y.",
"Y.Y.Y.Y.Y.Y.Y.Y.Y.Y.Y.Y.Y.Y.Y.Y.Y.Y.Y.Y.Y.Y.Y.Y.Y.Y.Y.Y.Y.Y.Y.Y.",
"Y.Y.Y.Y.Y.Y.Y.Y.Y.Y.Y.Y.Y.Y.Y.Y.Y.Y.Y.Y.Y.Y.Y.Y.Y.Y.Y.Y.Y.Y.Y.Y.",
"Y.Y.Y.Y.Y.Y.Y.Y.Y.Y.Y.Y.Y.Y.Y.Y.Y.Y.Y.Y.Y.Y.Y.Y.Y.Y.Y.Y.Y.Y.Y.Y.",
"Y.Y.Y.Y.Y.Y.Y.Y.Y.Y.Y.Y.Y.Y.Y.Y.Y.Y.Y.Y.Y.Y.Y.Y.Y.Y.Y.Y.Y.Y.Y.Y.",
"Y.Y.Y.Y.Y.Y.Y.Y.Y.Y.Y.Y.Y.Y.Y.Y.Y.Y.Y.Y.Y.Y.Y.Y.Y.Y.Y.Y.Y.Y.Y.Y.",
"Y.Y.Y.Y.Y.Y.Y.Y.Y.Y.Y.Y.Y.Y.Y.Y.Y.Y.Y.Y.Y.Y.Y.Y.Y.Y.Y.Y.Y.Y.Y.Y.",
"Y.Y.Y.Y.Y.Y.Y.Y.Y.Y.Y.Y.Y.Y.Y.Y.Y.Y.Y.Y.Y.Y.Y.Y.Y.Y.Y.Y.Y.Y.Y.Y."
};
