/* XPM */
static const char *enemy_attack1[] = {
/* columns rows colors chars-per-pixel */
"32 32 147 2 ",
"   c #2F0000",
".  c #340000",
"X  c #370000",
"o  c #360300",
"O  c #3C0000",
"+  c #3C0100",
"@  c #340902",
"#  c #3B1210",
"$  c #470205",
"%  c #490000",
"&  c #4A0000",
"*  c #4D0000",
"=  c #4F070A",
"-  c #440A08",
";  c #560408",
":  c #500E0F",
">  c #580C0E",
",  c #4C100F",
"<  c #4D1613",
"1  c #501416",
"2  c #5A1011",
"3  c #5A1E1D",
"4  c #5B1F1E",
"5  c #6F1715",
"6  c #6E1E1F",
"7  c #7E171A",
"8  c #5C221C",
"9  c #502C1E",
"0  c #6A271F",
"q  c #551A20",
"w  c #501F22",
"e  c #551E21",
"r  c #591D22",
"t  c #6C1D20",
"y  c #6B1927",
"u  c #721B21",
"i  c #701F24",
"p  c #7E1F23",
"a  c #572327",
"s  c #5C2127",
"d  c #592728",
"f  c #55282B",
"g  c #522C2D",
"h  c #5B2A2D",
"j  c #5E2C2F",
"k  c #4F362A",
"l  c #5A302F",
"z  c #572737",
"x  c #512830",
"c  c #5F3430",
"v  c #642726",
"b  c #62252C",
"n  c #6C2628",
"m  c #642D28",
"M  c #6A2D2A",
"N  c #6D282D",
"B  c #7B2226",
"V  c #7C222C",
"C  c #702E2F",
"Z  c #6F2033",
"A  c #602B3F",
"S  c #772C30",
"D  c #792638",
"F  c #653D39",
"G  c #7E3236",
"H  c #7A333B",
"J  c #513140",
"K  c #5E4842",
"L  c #694357",
"P  c #604B50",
"I  c #9E0206",
"U  c #801A18",
"Y  c #811A1D",
"T  c #931119",
"R  c #A70000",
"E  c #A80000",
"W  c #AE0000",
"Q  c #AE0003",
"!  c #A90007",
"~  c #A4141E",
"^  c #88201F",
"/  c #851E21",
"(  c #881B20",
")  c #8C1A24",
"_  c #8D1E27",
"`  c #8E1F26",
"'  c #981F29",
"]  c #932224",
"[  c #962529",
"{  c #97272E",
"}  c #99242C",
"|  c #98272D",
" . c #962A28",
".. c #93292D",
"X. c #8B302F",
"o. c #812331",
"O. c #862D33",
"+. c #AE282F",
"@. c #B4272F",
"#. c #BD212E",
"$. c #BF2A2E",
"%. c #A92032",
"&. c #AF2731",
"*. c #AD2C30",
"=. c #A92C34",
"-. c #AA2D35",
";. c #A92F3C",
":. c #A92F3E",
">. c #B52932",
",. c #B42B35",
"<. c #B72B36",
"1. c #BE2831",
"2. c #BD283B",
"3. c #A43337",
"4. c #A73437",
"5. c #A13A3D",
"6. c #CB181E",
"7. c #CB1D1C",
"8. c #D41713",
"9. c #D7151D",
"0. c #D7201A",
"q. c #D3201C",
"w. c #D8231C",
"e. c #E0201B",
"r. c #D71A20",
"t. c #DA1B2A",
"y. c #DD1D2A",
"u. c #D91C30",
"i. c #E11F20",
"p. c #E1162A",
"a. c #CA2221",
"s. c #CE242D",
"d. c #DB2124",
"f. c #D1262C",
"g. c #D12928",
"h. c #C12634",
"j. c #C92530",
"k. c #CE2731",
"l. c #C32933",
"z. c #C02A36",
"x. c #CF2933",
"c. c #C8253A",
"v. c #D82731",
"b. c #D93037",
"n. c #8A2E43",
"m. c #A17C76",
"M. c None",
/* pixels */
"M.M.M.M.M.M.M.M.M.M.M.M.M.M.M.M.M.M.M.M.M.M.M.M.M.M.M.M.M.M.M.M.",
"M.M.M.M.M.M.M.M.M.M.M.M.M.M.M.M.M.M.M.M.M.M.M.M.M.M.M.M.M.M.M.M.",
"M.M.M.M.M.M.M.M.M.M.M.M.M.M.M.M.M.M.M.M.M.M.M.M.M.M.M.M.M.M.M.M.",
"M.M.M.M.M.M.M.M.M.M.M.M.M.M.M.M.M.M.M.M.M.M.M.M.M.M.M.M.M.M.M.M.",
"M.M.M.M.M.M.M.M.M.M.M.M.M.M.M.M.M.M.M.M.M.M.M.M.M.M.M.M.M.M.M.M.",
"M.M.M.M.M.M.M.M.M.M.M.M.M.M.M.M.M.M.M.M.M.M.M.M.M.M.M.M.M.M.M.M.",
"M.M.M.M.M.M.M.M.M.M.M.M.M.M.M.M.M.M.M.M.M.M.M.M.M.M.M.M.M.M.M.M.",
"M.M.M.M.M.M.M.M.M.M.M.M.M.M.M.M.M.M.M.M.M.M.M.M.M.M.M.M.M.M.M.M.",
"M.M.M.M.M.M.M.M.M.M.M.M.M.M.M.M.M.M.M.M.M.M.M.M.M.M.M.M.M.M.M.M.",
"M.M.M.M.M.M.M.M.M.M.M.M.M.M.M.M.M.M.M.M.M.M.M.M.M.M.M.M.M.M.M.M.",
"M.M.M.M.M.M.M.M.M.M.M.M.M.M.M.M.M.M.M.M.M.M.M.M.M.M.M.M.M.M.M.M.",
"M.M.M.M.M.M.M.M.M.M.M.M.M.l 1 $ : - F M.M.M.M.M.M.M.M.M.M.M.M.M.",
"M.M.M.M.M.M.M.M.M.M.M.M.= _ 2.c.h.<.) i M.M.M.M.M.M.M.M.M.M.M.M.",
"M.M.M.M.M.M.M.M.M.M.M.M ..z.u.p.y.v.#.' M.M.M.M.M.M.M.M.M.M.M.M.",
"M.M.M.M.M.M.M.M.M.M.3 X.*.I 6.d.q.7.! >.B M.M.M.M.M.{ 6 M.M.M.M.",
"M.M.M.P M.M.M.M.M.M.> 3.$.E W 0.w.R W l.5.+ M.S ;.%.;.u M.M.M.M.",
"M.M.w s a M.M.K M.M.; -.k.r.8.e.i.9.t.j.4.& M.v V o.y M.M.M.M.M.",
"M.M.h N G t 2 C < , * ( 1.b.a.g.f.s.x.@.U M.M.M.M.M.M.M.M.M.M.M.",
"M.M.M.j O.} &.<.-./ X X p _ } [ ]  .^ 5   X M.M.M.M.M.M.M.M.M.M.",
"M.M.M.M.n 7 +.~ T Y + @ e q b r 3 8 m M.M.c H M.M.M.M.M.M.M.M.M.",
"M.M.M.M.M.9 0 & X + d g M.M.M.M.M.M.M.M.M.M.n.D M.M.M.M.M.M.M.M.",
"M.M.M.M.M.M.k m.# f x M.M.M.M.M.M.M.M.M.M.M.M.Z M.M.M.M.M.M.M.M.",
"M.M.M.M.M.M.M.M.z A J M.M.M.M.M.M.M.M.M.M.M.M.M.M.M.M.M.M.M.M.M.",
"M.M.M.M.M.M.M.M.M.L M.M.M.M.M.M.M.M.M.M.M.M.M.M.M.M.M.M.M.M.M.M.",
"M.M.M.M.M.M.M.M.M.M.M.M.M.M.M.M.M.M.M.M.M.M.M.M.M.M.M.M.M.M.M.M.",
"M.M.M.M.M.M.M.M.M.M.M.M.M.M.M.M.M.M.M.M.M.M.M.M.M.M.M.M.M.M.M.M.",
"M.M.M.M.M.M.M.M.M.M.M.M.M.M.M.M.M.M.M.M.M.M.M.M.M.M.M.M.M.M.M.M.",
"M.M.M.M.M.M.M.M.M.M.M.M.M.M.M.M.M.M.M.M.M.M.M.M.M.M.M.M.M.M.M.M.",
"M.M.M.M.M.M.M.M.M.M.M.M.M.M.M.M.M.M.M.M.M.M.M.M.M.M.M.M.M.M.M.M.",
"M.M.M.M.M.M.M.M.M.M.M.M.M.M.M.M.M.M.M.M.M.M.M.M.M.M.M.M.M.M.M.M.",
"M.M.M.M.M.M.M.M.M.M.M.M.M.M.M.M.M.M.M.M.M.M.M.M.M.M.M.M.M.M.M.M.",
"M.M.M.M.M.M.M.M.M.M.M.M.M.M.M.M.M.M.M.M.M.M.M.M.M.M.M.M.M.M.M.M."
};
