/* XPM */
static const char *enemy2[] = {
/* columns rows colors chars-per-pixel */
"32 32 167 2 ",
"   c #260000",
".  c #2F0000",
"X  c #2A0401",
"o  c #2D0503",
"O  c #2F0803",
"+  c #280906",
"@  c #2C0F07",
"#  c #300000",
"$  c #310000",
"%  c #310100",
"&  c #300500",
"*  c #380000",
"=  c #3B0000",
"-  c #3E0000",
";  c #3F0000",
":  c #3E1302",
">  c #3E1004",
",  c #3F130A",
"<  c #3F1612",
"1  c #3C1D22",
"2  c #3D2F2E",
"3  c #400100",
"4  c #430000",
"5  c #460000",
"6  c #410706",
"7  c #4E0C00",
"8  c #4B0F0F",
"9  c #550A04",
"0  c #471306",
"q  c #441608",
"w  c #4C110D",
"e  c #54170D",
"r  c #51190A",
"t  c #4F0816",
"y  c #4C1419",
"u  c #571217",
"i  c #59131E",
"p  c #7A0C15",
"a  c #73171A",
"s  c #49231A",
"d  c #51201B",
"f  c #622218",
"g  c #5C1324",
"h  c #501E22",
"j  c #541E26",
"k  c #501E29",
"l  c #6D1626",
"z  c #6E1D2E",
"x  c #7C1F27",
"c  c #751F2C",
"v  c #412124",
"b  c #422724",
"n  c #4F2028",
"m  c #502627",
"M  c #552028",
"N  c #5F232B",
"B  c #512A2B",
"V  c #522C2C",
"C  c #43312F",
"Z  c #5D312E",
"A  c #542F31",
"S  c #5C2A35",
"D  c #563230",
"F  c #5F313B",
"G  c #513939",
"H  c #662022",
"J  c #6B2523",
"K  c #6B2527",
"L  c #6C242F",
"P  c #64282A",
"I  c #602E2A",
"U  c #602D2C",
"Y  c #6D2928",
"T  c #7C2126",
"R  c #7D2127",
"E  c #75222A",
"W  c #7F2B29",
"Q  c #7F2A2F",
"!  c #6B2132",
"~  c #62353A",
"^  c #6D3139",
"/  c #65393A",
"(  c #78353C",
")  c #75423E",
"_  c #7E3141",
"`  c #703B45",
"'  c #594345",
"]  c #604649",
"[  c #6F5352",
"{  c #80121F",
"}  c #8B141A",
"|  c #A70000",
" . c #A70002",
".. c #AA0001",
"X. c #AE0000",
"o. c #AC0203",
"O. c #A8010B",
"+. c #8E1D23",
"@. c #8E1F26",
"#. c #971924",
"$. c #9F1D27",
"%. c #A41C2A",
"&. c #A81C29",
"*. c #AB1D2B",
"=. c #882520",
"-. c #8E2B25",
";. c #80202B",
":. c #812528",
">. c #89252F",
",. c #8F282C",
"<. c #952124",
"1. c #9C202B",
"2. c #9D2429",
"3. c #9E222D",
"4. c #872232",
"5. c #802630",
"6. c #8C2631",
"7. c #922930",
"8. c #9C2930",
"9. c #9B2C35",
"0. c #833B3F",
"q. c #B3212B",
"w. c #B52B29",
"e. c #B32B2D",
"r. c #B12F2D",
"t. c #BA292E",
"y. c #A02B34",
"u. c #A72638",
"i. c #A02D3C",
"p. c #BE2331",
"a. c #BD2531",
"s. c #B72A33",
"d. c #B32A34",
"f. c #A2373D",
"g. c #C6151D",
"h. c #C2191E",
"j. c #D5161D",
"k. c #D51918",
"l. c #DB1D1D",
"z. c #C41F23",
"x. c #C81E27",
"c. c #D61F21",
"v. c #D31F2B",
"b. c #D81F2D",
"n. c #E01D25",
"m. c #E61D25",
"M. c #CA2126",
"N. c #CF2526",
"B. c #DC2426",
"V. c #D22129",
"C. c #D42628",
"Z. c #D0202D",
"A. c #D2202E",
"S. c #C02630",
"D. c #CD2534",
"F. c #C62C36",
"G. c #CE293A",
"H. c #D92030",
"J. c #D72C34",
"K. c #D72C35",
"L. c #D52E38",
"P. c #803242",
"I. c #863442",
"U. c #A63141",
"Y. c #926958",
"T. c #B88084",
"R. c None",
/* pixels */
"R.R.R.R.R.R.R.R.R.R.R.R.R.R.R.R.R.R.R.R.R.R.R.R.R.R.R.R.R.R.R.R.",
"R.R.R.R.R.R.R.R.R.R.R.R.R.R.R.R.R.R.R.R.R.R.R.R.R.R.R.R.R.R.R.R.",
"R.R.R.R.R.R.R.R.R.R.R.R.R.R.R.R.R.R.R.R.R.R.R.R.R.R.R.R.R.R.R.R.",
"R.R.R.R.R.R.R.R.R.R.R.R.R.R.R.R.R.R.R.R.R.R.R.R.R.R.R.R.R.R.R.R.",
"R.R.R.R.R.R.R.R.R.R.R.R.R.R.R.R.R.R.R.R.R.R.R.R.R.R.R.R.R.R.R.R.",
"R.R.R.R.R.R.R.R.R.R.R.R.R.R.R.R.R.R.R.R.R.R.R.R.R.R.R.R.R.R.R.R.",
"R.R.R.R.R.R.R.R.R.R.R.R.R.R.R.R.R.R.R.R.R.R.R.R.R.R.R.R.R.R.R.R.",
"R.R.R.R.R.R.R.R.R.R.R.R.R.R.R.R.R.R.R.R.R.R.R.R.R.R.R.R.R.R.R.R.",
"R.R.R.R.R.R.R.R.R.R.R.R.R.R.R.R.R.R.R.R.R.R.R.R.R.R.R.R.R.R.R.R.",
"R.R.R.R.R.R.R.R.R.R.R.R.R.R.R.R.R.R.R.R.R.R.R.R.R.R.R.R.R.R.R.R.",
"R.R.R.R.R.R.R.R.R.R.R.R.R.R.R.R.R.R.R.R.R.R.R.R.R.R.R.R.R.R.R.R.",
"R.R.R.R.R.R.R.R.R.R.R.R.R.R.R.R.R.R.R.R.R.R.R.R.R.R.R.R.R.R.R.R.",
"R.R.R.R.R.G R.R.R.R.R.R.R.R.h * ; ; . V R.R.R.R.R.R.R.R.R.R.R.R.",
"R.R.R.R.b m / R.[ R.R.R.R.) :.8.2.<.,.Q P R.R.R.R.R.R.R.R.R.R.R.",
"R.R.R.R.& H 6.{ ;.0.R.R.f =.t.x.V.K.S.d.3.T R.R.R.R.R.7.>.R.R.R.",
"R.R.R.R.< K i.u.U.T 0 r -.w. .j.m.n.g.O.G.$.e q W f.y.9.x R.R.R.",
"R.R.R.R.R.~ l 4.5.J : 3 r.z.o.o.l.k. ...H.a.5 > Y E c L R.R.R.R.",
"R.R.R.R.R.R.` i u w Y.7 e.K.h.C.B.c.N.M.A.q.9 R.I y j R.R.R.R.R.",
"R.R.R.R.R.R.R.R.T.8 , * } p.D.A.b.v.L.F.s.+.# s R.R.R.R.R.R.R.R.",
"R.R.R.R.R.R.R.R.N ( Z d 3 p 1.%.*.*.#.@.a 3 ; U D R.R.R.R.R.R.R.",
"R.R.R.R.R.R.R.v _ P.B R.+ X o # * 6 # O @   * I.^ A R.R.R.R.R.R.",
"R.R.R.R.R.R.R.1 ! g R.R.R.R.R.R.R.R.R.R.R.R.t z M R.R.R.R.R.R.R.",
"R.R.R.R.R.R.R.2 k S R.R.R.R.R.R.R.R.R.R.R.R.F n C R.R.R.R.R.R.R.",
"R.R.R.R.R.R.R.R.] R.R.R.R.R.R.R.R.R.R.R.R.R.R.' R.R.R.R.R.R.R.R.",
"R.R.R.R.R.R.R.R.R.R.R.R.R.R.R.R.R.R.R.R.R.R.R.R.R.R.R.R.R.R.R.R.",
"R.R.R.R.R.R.R.R.R.R.R.R.R.R.R.R.R.R.R.R.R.R.R.R.R.R.R.R.R.R.R.R.",
"R.R.R.R.R.R.R.R.R.R.R.R.R.R.R.R.R.R.R.R.R.R.R.R.R.R.R.R.R.R.R.R.",
"R.R.R.R.R.R.R.R.R.R.R.R.R.R.R.R.R.R.R.R.R.R.R.R.R.R.R.R.R.R.R.R.",
"R.R.R.R.R.R.R.R.R.R.R.R.R.R.R.R.R.R.R.R.R.R.R.R.R.R.R.R.R.R.R.R.",
"R.R.R.R.R.R.R.R.R.R.R.R.R.R.R.R.R.R.R.R.R.R.R.R.R.R.R.R.R.R.R.R.",
"R.R.R.R.R.R.R.R.R.R.R.R.R.R.R.R.R.R.R.R.R.R.R.R.R.R.R.R.R.R.R.R.",
"R.R.R.R.R.R.R.R.R.R.R.R.R.R.R.R.R.R.R.R.R.R.R.R.R.R.R.R.R.R.R.R."
};
