/* XPM */
static const char *p_left4[] = {
/* columns rows colors chars-per-pixel */
"32 32 155 2 ",
"   c #3F1804",
".  c #033C05",
"X  c #073908",
"o  c #0B390C",
"O  c #053A11",
"+  c #3E2504",
"@  c #3D3D0E",
"#  c #382217",
"$  c #2F3132",
"%  c #3C383A",
"&  c #421603",
"*  c #431B03",
"=  c #4B1B04",
"-  c #431D0A",
";  c #581E07",
":  c #511A03",
">  c #4F280A",
",  c #542109",
"<  c #5E240D",
"1  c #5A2506",
"2  c #422616",
"3  c #4C2210",
"4  c #5B3E1F",
"5  c #6F2D05",
"6  c #67280A",
"7  c #6C2D0A",
"8  c #632809",
"9  c #722E02",
"0  c #6A3006",
"q  c #753205",
"w  c #7C3503",
"e  c #733209",
"r  c #7C3C0C",
"t  c #642C16",
"y  c #6A2F18",
"u  c #663117",
"i  c #6F3811",
"p  c #67311A",
"a  c #783510",
"s  c #773C17",
"d  c #5F3F25",
"f  c #4C3932",
"g  c #633823",
"h  c #054D08",
"j  c #1C4809",
"k  c #025905",
"l  c #04530A",
"z  c #025A0A",
"x  c #09580A",
"c  c #015206",
"v  c #115609",
"b  c #1E5609",
"n  c #20510B",
"m  c #264910",
"M  c #255A14",
"N  c #225013",
"B  c #246113",
"V  c #297319",
"C  c #1C4522",
"Z  c #794010",
"A  c #4B651F",
"S  c #4E731E",
"D  c #46403E",
"F  c #56423B",
"G  c #1E4048",
"H  c #13474C",
"J  c #3D4B48",
"K  c #235B5F",
"L  c #186570",
"P  c #2A6068",
"I  c #296A76",
"U  c #833602",
"Y  c #833902",
"T  c #8A3C03",
"R  c #813E0A",
"E  c #884104",
"W  c #84420C",
"Q  c #974704",
"!  c #9D4C04",
"~  c #904409",
"^  c #964909",
"/  c #964B06",
"(  c #814212",
")  c #A35204",
"_  c #87462D",
"`  c #865538",
"'  c #935E36",
"]  c #A04E35",
"[  c #8D6633",
"{  c #9D6936",
"}  c #99713B",
"|  c #AF6936",
" . c #A7693B",
".. c #C36D3E",
"X. c #A85D42",
"o. c #956947",
"O. c #9C6A53",
"+. c #AE674A",
"@. c #A5614C",
"#. c #BB6442",
"$. c #B26751",
"%. c #B37158",
"&. c #A77762",
"*. c #C46F40",
"=. c #C96E45",
"-. c #D96A43",
";. c #CA7659",
":. c #CF795A",
">. c #D17550",
",. c #D97150",
"<. c #D07F5B",
"1. c #F37842",
"2. c #C47E61",
"3. c #478D37",
"4. c #998647",
"5. c #B9876C",
"6. c #F7844D",
"7. c #E48C5D",
"8. c #F68A52",
"9. c #C68767",
"0. c #D68866",
"q. c #D38B68",
"w. c #DA966C",
"e. c #C89177",
"r. c #E59168",
"t. c #EC986C",
"y. c #F59768",
"u. c #F5996C",
"i. c #F49D74",
"p. c #DDA573",
"a. c #DCA07F",
"s. c #FBA375",
"d. c #FDAA7F",
"f. c #F6A579",
"g. c #CE9680",
"h. c #D5A38F",
"j. c #EFAD8A",
"k. c #E2A281",
"l. c #F5A782",
"z. c #F4AB86",
"x. c #FDAC81",
"c. c #EDB99B",
"v. c #F7B292",
"b. c #CBC3BF",
"n. c #D9C7BB",
"m. c #D6C4B9",
"M. c #E3CBB9",
"N. c #CDC7C0",
"B. c #C8C8C7",
"V. c #DED6CC",
"C. c #DED7D0",
"Z. c #E2D6CC",
"A. c #F9E4D7",
"S. c #F5E5D5",
"D. c None",
/* pixels */
"D.D.D.D.D.D.D.D.D.D.D.D.D.D.D.D.D.D.D.D.D.D.D.D.D.D.D.D.D.D.D.D.",
"D.D.D.D.D.D.D.D.D.D.D.D.D.D.D.D.D.D.D.D.D.D.D.D.D.D.D.D.D.D.D.D.",
"D.D.D.D.D.D.D.D.D.D.D.D.D.D.D.D.D.D.D.D.D.D.D.D.D.D.D.D.D.D.D.D.",
"D.D.D.D.D.D.D.D.D.D.D.D.D.D.D.D.D.D.D.D.D.D.D.D.D.D.D.D.D.D.D.D.",
"D.D.D.D.D.D.D.D.D.D.D.D.D.D.D.D.D.D.D.D.D.D.D.D.D.D.D.D.D.D.D.D.",
"D.D.D.D.D.D.D.D.D.D.D.D.D.D.D.D.D.D.D.D.D.D.D.D.D.D.D.D.D.D.D.D.",
"D.D.D.D.D.D.D.D.D.D.D.r r r D.D.D.D.D.D.D.D.D.D.D.D.D.D.D.D.D.D.",
"D.D.D.D.D.D.D.D.D.D.E ! ! / r r R ( D.D.D.D.D.D.D.D.D.D.D.D.D.D.",
"D.D.D.D.D.D.D.D.D.E ! ) ! T U Q ! ^ W Z D.D.D.D.D.D.D.D.D.D.D.D.",
"D.D.D.D.D.D.D.D.r ! ) ! T U w Y Y T Q ^ W D.D.D.D.D.D.D.D.D.D.D.",
"D.D.D.D.D.D.D.D.r ! Q q 9 9 w w w w U Y ~ i D.D.D.D.D.D.D.D.D.D.",
"D.D.D.D.D.D.D.D.D.s a < t u 7 5 9 w w w w 1 D.D.D.D.D.D.D.D.D.D.",
"D.D.D.D.D.D.D.D.D.D.D.@.9.9.g 3 , q w U w e - D.D.D.D.D.D.D.D.D.",
"D.D.D.D.D.D.D.D.D.D.D.n.h.n.b.m.&.8 q q q q = D.D.D.D.D.D.D.D.D.",
"D.D.D.D.D.D.D.D.D.D.B.D 5.F % C.e.< 5 : ; 7 = D.D.D.D.D.D.D.D.D.",
"D.D.D.D.D.D.D.D.D.g.N.% 5.f $ V.a.< 6 , _ t - D.D.D.D.D.D.D.D.D.",
"D.D.D.D.D.D.D.D.>.j.S.Z.c.M.Z.A.k.p y ] ;.X.D.D.D.D.D.D.D.D.D.D.",
"D.D.D.D.D.D.D.D.:.i.z.x.s.d.z.v.l.q.2.#.:.+.D.D.D.D.D.D.D.D.D.D.",
"D.D.D.D.D.D.D.D.D.;.,.1.6.6.8.s.x.f.0.<.$.D.D.D.D.D.D.D.D.D.D.D.",
"D.D.D.D.D.D.D.D.D.D.D.| 7.y.y.u.i.r.' ` D.D.D.D.D.D.D.D.D.D.D.D.",
"D.D.D.D.D.D.D.D.D.D.D.b { =.-.-.=. .n o D.D.D.D.D.D.D.D.D.D.D.D.",
"D.D.D.D.D.D.D.D.D.D.D.x V S ..*.A m l l o D.D.D.D.D.D.D.D.D.D.D.",
"D.D.D.D.D.D.D.D.D.D.D.z 3.4.t.w.N c z l . D.D.D.D.D.D.D.D.D.D.D.",
"D.D.D.D.D.D.D.D.D.D.D.v } u.d.p.M z k k . D.D.D.D.D.D.D.D.D.D.D.",
"D.D.D.D.D.D.D.D.D.D.D.v  .s.x.p.B z l l X D.D.D.D.D.D.D.D.D.D.D.",
"D.D.D.D.D.D.D.D.D.D.D.j [ t.s.w.M c h o D.D.D.D.D.D.D.D.D.D.D.D.",
"D.D.D.D.D.D.D.D.D.  = + @ o.%.O.C O o D.D.D.D.D.D.D.D.D.D.D.D.D.",
"D.D.D.D.D.D.D.D.D.= e q > J I I L H D.D.D.D.D.D.D.D.D.D.D.D.D.D.",
"D.D.D.D.D.D.D.D.D.= q w e 2 K I P G D.D.D.D.D.D.D.D.D.D.D.D.D.D.",
"D.D.D.D.D.D.D.D.D.D., q q = 2 d 4 # D.D.D.D.D.D.D.D.D.D.D.D.D.D.",
"D.D.D.D.D.D.D.D.D.D.D.- * & 8 q 0 & D.D.D.D.D.D.D.D.D.D.D.D.D.D.",
"D.D.D.D.D.D.D.D.D.D.D.D.D.& = = = & D.D.D.D.D.D.D.D.D.D.D.D.D.D."
};
