/* XPM */
static const char *p_left2[] = {
/* columns rows colors chars-per-pixel */
"32 32 170 2 ",
"   c #3F1605",
".  c #381907",
"X  c #0A350D",
"o  c #053905",
"O  c #163908",
"+  c #1D3909",
"@  c #392517",
"#  c #2F3132",
"$  c #3B3839",
"%  c #471B06",
"&  c #4B1B04",
"*  c #481E09",
"=  c #421D0C",
"-  c #581E07",
";  c #541C07",
":  c #45200C",
">  c #54230A",
",  c #5D250D",
"<  c #582608",
"1  c #4C2210",
"2  c #573E1D",
"3  c #6F2D05",
"4  c #6A2C0A",
"5  c #62260B",
"6  c #722F03",
"7  c #763205",
"8  c #7C3503",
"9  c #7B3D0D",
"0  c #70340A",
"q  c #652C16",
"w  c #6C2D18",
"e  c #693417",
"r  c #783D18",
"t  c #793A11",
"y  c #4B3932",
"u  c #633823",
"i  c #054E0B",
"p  c #07410B",
"a  c #1C460B",
"s  c #035306",
"d  c #025907",
"f  c #02530A",
"g  c #035C0A",
"h  c #10520F",
"j  c #0B4111",
"k  c #1E4D12",
"l  c #075F1A",
"z  c #175818",
"x  c #1B5416",
"c  c #2A4718",
"v  c #245612",
"b  c #295C16",
"n  c #06611E",
"m  c #0B7C15",
"M  c #077416",
"N  c #12711E",
"B  c #366118",
"V  c #2C711A",
"C  c #357C1D",
"Z  c #36731F",
"A  c #075927",
"S  c #18483A",
"D  c #3B5020",
"F  c #066120",
"G  c #167F21",
"H  c #5F411E",
"J  c #794010",
"K  c #416D1A",
"L  c #45403D",
"P  c #56423B",
"I  c #1A3D46",
"U  c #16484F",
"Y  c #13434D",
"T  c #094752",
"R  c #2A504A",
"E  c #245F67",
"W  c #17646C",
"Q  c #196369",
"!  c #196D78",
"~  c #266671",
"^  c #6E5C47",
"/  c #833602",
"(  c #833902",
")  c #8A3C03",
"_  c #823E0A",
"`  c #83410C",
"'  c #874105",
"]  c #974704",
"[  c #9D4C04",
"{  c #964909",
"}  c #934808",
"|  c #814112",
" . c #A35204",
".. c #88462E",
"X. c #9F4F33",
"o. c #855437",
"O. c #935835",
"+. c #AC5A3A",
"@. c #9F613C",
"#. c #967D3E",
"$. c #A9623A",
"%. c #C66E3C",
"&. c #A66041",
"*. c #AD684D",
"=. c #A6634E",
"-. c #B56842",
";. c #B16A54",
":. c #A77762",
">. c #CA6C45",
",. c #C46741",
"<. c #CC6E50",
"1. c #CD7655",
"2. c #CB7954",
"3. c #C77659",
"4. c #C7785C",
"5. c #CC7A5A",
"6. c #D27552",
"7. c #D57A59",
"8. c #E0724C",
"9. c #F27A43",
"0. c #C57E60",
"q. c #148B29",
"w. c #188B28",
"e. c #279637",
"r. c #2B953A",
"t. c #2E9843",
"y. c #2FA74A",
"u. c #2FA947",
"i. c #35A745",
"p. c #33A746",
"a. c #479546",
"s. c #B3885C",
"d. c #B5965E",
"f. c #B9866D",
"g. c #F78846",
"h. c #F8864C",
"j. c #E58A5E",
"k. c #C48A66",
"l. c #D7886A",
"z. c #CF9C66",
"x. c #D59A6E",
"c. c #C89177",
"v. c #E58F6A",
"b. c #EE926B",
"n. c #F69969",
"m. c #EF9871",
"M. c #E19670",
"N. c #F39C74",
"B. c #DAA575",
"V. c #FBA579",
"C. c #FCAD7F",
"Z. c #F9A273",
"A. c #CE9683",
"S. c #D8A288",
"D. c #E8A786",
"F. c #F6A780",
"G. c #F9AB83",
"H. c #F3A981",
"J. c #FAB18E",
"K. c #EEB89E",
"L. c #CBC3BF",
"P. c #D7C5BA",
"I. c #E3C9BF",
"U. c #CCC8C7",
"Y. c #DED6CF",
"T. c #DED7D0",
"R. c #E1D7CE",
"E. c #E2D5C7",
"W. c #F7E5D6",
"Q. c None",
/* pixels */
"Q.Q.Q.Q.Q.Q.Q.Q.Q.Q.Q.Q.Q.Q.Q.Q.Q.Q.Q.Q.Q.Q.Q.Q.Q.Q.Q.Q.Q.Q.Q.Q.",
"Q.Q.Q.Q.Q.Q.Q.Q.Q.Q.Q.Q.Q.Q.Q.Q.Q.Q.Q.Q.Q.Q.Q.Q.Q.Q.Q.Q.Q.Q.Q.Q.",
"Q.Q.Q.Q.Q.Q.Q.Q.Q.Q.Q.Q.Q.Q.Q.Q.Q.Q.Q.Q.Q.Q.Q.Q.Q.Q.Q.Q.Q.Q.Q.Q.",
"Q.Q.Q.Q.Q.Q.Q.Q.Q.Q.Q.Q.Q.Q.Q.Q.Q.Q.Q.Q.Q.Q.Q.Q.Q.Q.Q.Q.Q.Q.Q.Q.",
"Q.Q.Q.Q.Q.Q.Q.Q.Q.Q.Q.Q.Q.Q.Q.Q.Q.Q.Q.Q.Q.Q.Q.Q.Q.Q.Q.Q.Q.Q.Q.Q.",
"Q.Q.Q.Q.Q.Q.Q.Q.Q.Q.Q.Q.Q.Q.Q.Q.Q.Q.Q.Q.Q.Q.Q.Q.Q.Q.Q.Q.Q.Q.Q.Q.",
"Q.Q.Q.Q.Q.Q.Q.Q.Q.Q.Q.9 9 9 Q.Q.Q.Q.Q.Q.Q.Q.Q.Q.Q.Q.Q.Q.Q.Q.Q.Q.",
"Q.Q.Q.Q.Q.Q.Q.Q.Q.Q.' [ [ { 9 9 _ | Q.Q.Q.Q.Q.Q.Q.Q.Q.Q.Q.Q.Q.Q.",
"Q.Q.Q.Q.Q.Q.Q.Q.Q.` [  .[ ) / ] [ { ` J Q.Q.Q.Q.Q.Q.Q.Q.Q.Q.Q.Q.",
"Q.Q.Q.Q.Q.Q.Q.Q.9 [  .[ ) / 8 ( ( ) ] { ` Q.Q.Q.Q.Q.Q.Q.Q.Q.Q.Q.",
"Q.Q.Q.Q.Q.Q.Q.Q.9 [ ] 7 6 6 8 8 8 8 / ( } e Q.Q.Q.Q.Q.Q.Q.Q.Q.Q.",
"Q.Q.Q.Q.Q.Q.Q.Q.Q.r t , q e 4 3 6 8 8 8 8 < Q.Q.Q.Q.Q.Q.Q.Q.Q.Q.",
"Q.Q.Q.Q.Q.Q.Q.Q.Q.Q.Q.=.k.k.u 1 > 7 8 / 8 0 : Q.Q.Q.Q.Q.Q.Q.Q.Q.",
"Q.Q.Q.Q.Q.Q.Q.Q.Q.Q.Q.P.S.P.L.L.:.5 7 7 7 7 & Q.Q.Q.Q.Q.Q.Q.Q.Q.",
"Q.Q.Q.Q.Q.Q.Q.Q.Q.Q.U.L f.P $ T.c., 3 ; - 4 & Q.Q.Q.Q.Q.Q.Q.Q.Q.",
"Q.Q.Q.Q.Q.Q.Q.Q.Q.A.U.$ f.y # Y.S., 4 - ..q = Q.Q.Q.Q.Q.Q.Q.Q.Q.",
"Q.Q.Q.Q.Q.Q.Q.Q.6.D.W.E.K.I.R.W.D.e w X.2.&.Q.Q.Q.Q.Q.Q.Q.Q.Q.Q.",
"Q.Q.Q.Q.Q.Q.Q.Q.1.N.H.G.V.G.G.J.F.l.0.-.5.*.Q.Q.Q.Q.Q.Q.Q.Q.Q.Q.",
"Q.Q.Q.Q.Q.Q.Q.Q.Q.1.6.9.h.g.h.V.C.V.l.5.;.Q.Q.Q.Q.Q.Q.Q.Q.Q.Q.Q.",
"Q.Q.Q.Q.Q.Q.Q.Q.Q.Q.Q.$.j.n.n.n.N.v.O.o.^ Q.Q.Q.Q.Q.Q.Q.Q.Q.Q.Q.",
"Q.Q.Q.Q.Q.Q.Q.Q.Q.Q.X O @.>.>.%.>.+.+ o X Q.Q.Q.Q.Q.Q.Q.Q.Q.Q.Q.",
"Q.Q.Q.Q.Q.Q.Q.Q.Q.p i s V C C Z c v s s f j Q.Q.Q.Q.Q.Q.Q.Q.Q.Q.",
"Q.Q.Q.Q.Q.Q.Q.Q.o i f g e.u.y.t.i f g d d x c Q.Q.Q.Q.Q.Q.Q.Q.Q.",
"Q.Q.Q.Q.Q.Q.Q.Q.c i s g G w.q.q.N h v b B d.x.3.Q.Q.Q.Q.Q.Q.Q.Q.",
"Q.Q.Q.Q.Q.Q.Q.1.k.D k g r.i.i.p.p.a.#.z.B.C.V.6.Q.Q.Q.Q.Q.Q.Q.Q.",
"Q.Q.Q.Q.Q.Q.Q.2.m.M.s.z M m m m m m K -.b.Z.N.4.Q.Q.Q.Q.Q.Q.Q.Q.",
"Q.Q.Q.Q.Q.Q.Q.Q.Q.8.*.S A F n F n l a < +.,.<.Q.Q.Q.Q.Q.Q.Q.Q.Q.",
"Q.Q.Q.Q.Q.Q.Q.Q.Q.Q.Q.T Q ! W Q Q R > 7 8 > Q.Q.Q.Q.Q.Q.Q.Q.Q.Q.",
"Q.Q.Q.Q.Q.Q.Q.Q.Q.Q.Q.I E ~ U Y I @ 7 8 7 & Q.Q.Q.Q.Q.Q.Q.Q.Q.Q.",
"Q.Q.Q.Q.Q.Q.Q.Q.Q.Q.Q.@ 2 H @ Q.Q.& 7 7 < Q.Q.Q.Q.Q.Q.Q.Q.Q.Q.Q.",
"Q.Q.Q.Q.Q.Q.Q.Q.Q.Q.% 4 7 6 % Q.Q.. % * Q.Q.Q.Q.Q.Q.Q.Q.Q.Q.Q.Q.",
"Q.Q.Q.Q.Q.Q.Q.Q.Q.Q.  & & &   Q.Q.Q.Q.Q.Q.Q.Q.Q.Q.Q.Q.Q.Q.Q.Q.Q."
};
