/* XPM */
static const char *p_left3[] = {
/* columns rows colors chars-per-pixel */
"32 32 162 2 ",
"   c #023B05",
".  c #053A09",
"X  c #0E380A",
"o  c #1A3C0C",
"O  c #2D2D1A",
"+  c #382A1B",
"@  c #3C2415",
"#  c #303131",
"$  c #383331",
"%  c #3D3E3F",
"&  c #431501",
"*  c #471C03",
"=  c #4B1A03",
"-  c #421C0C",
";  c #581E07",
":  c #511A03",
">  c #42200A",
",  c #4F230F",
"<  c #56200A",
"1  c #5E240D",
"2  c #5C290D",
"3  c #572306",
"4  c #4C2210",
"5  c #6F2D06",
"6  c #67280A",
"7  c #6C2E0A",
"8  c #62260B",
"9  c #722E04",
"0  c #782E07",
"q  c #6A3109",
"w  c #763204",
"e  c #7C3502",
"r  c #7C3D0C",
"t  c #70340A",
"y  c #692510",
"u  c #642C16",
"i  c #6A2F18",
"p  c #6B2A17",
"a  c #663117",
"s  c #6F3811",
"d  c #67311A",
"f  c #793712",
"g  c #7A3E16",
"h  c #4D3833",
"j  c #633823",
"k  c #054509",
"l  c #025305",
"z  c #025906",
"x  c #03530A",
"c  c #04590B",
"v  c #09530D",
"b  c #155714",
"n  c #254C0C",
"m  c #25570E",
"M  c #284312",
"N  c #2C4913",
"B  c #295F19",
"V  c #2E511E",
"C  c #097317",
"Z  c #0D7B17",
"A  c #286217",
"S  c #28751A",
"D  c #337E1E",
"F  c #35731F",
"G  c #085828",
"H  c #194739",
"J  c #46403E",
"K  c #56423B",
"L  c #0E454E",
"P  c #104750",
"I  c #21404A",
"U  c #225B62",
"Y  c #823502",
"T  c #833902",
"R  c #8A3C03",
"E  c #813E09",
"W  c #82420D",
"Q  c #884208",
"!  c #8A4203",
"~  c #974704",
"^  c #9D4C04",
"/  c #904409",
"(  c #964909",
")  c #964B06",
"_  c #814212",
"`  c #A35204",
"'  c #87462D",
"]  c #875538",
"[  c #935E36",
"{  c #A04E35",
"}  c #B15D3F",
"|  c #86633C",
" . c #9E6137",
".. c #9F623B",
"X. c #AB643B",
"o. c #CA6B3E",
"O. c #F17B3E",
"+. c #A95F44",
"@. c #AA654C",
"#. c #BC6244",
"$. c #A57F44",
"%. c #B16953",
"&. c #A77762",
"*. c #CA6D43",
"=. c #C76A48",
"-. c #CF6F4B",
";. c #C4734F",
":. c #D8744E",
">. c #C97056",
",. c #CA7659",
"<. c #CF785B",
"1. c #D17550",
"2. c #D17D5C",
"3. c #D87C53",
"4. c #C47E61",
"5. c #148121",
"6. c #168C28",
"7. c #168C27",
"8. c #2B9538",
"9. c #2B9841",
"0. c #32A746",
"q. c #38A746",
"w. c #30A748",
"e. c #33A848",
"r. c #499745",
"t. c #B9866D",
"y. c #F8844C",
"u. c #E58A5E",
"i. c #F68A52",
"p. c #C58767",
"a. c #D68866",
"s. c #D38B68",
"d. c #C89177",
"f. c #E59168",
"g. c #F6996C",
"h. c #F0956B",
"j. c #E19C71",
"k. c #F39B72",
"l. c #DCA07F",
"z. c #E2A374",
"x. c #FCA475",
"c. c #F6A579",
"v. c #FFAA7E",
"b. c #CD9580",
"n. c #D5A38E",
"m. c #E9A786",
"M. c #F5A782",
"N. c #F4AC87",
"B. c #FDAB81",
"V. c #EDB99C",
"C. c #F6B391",
"Z. c #CBC3BF",
"A. c #D7C6BA",
"S. c #E3CABC",
"D. c #C8C8C7",
"F. c #CDC6C2",
"G. c #DED6CD",
"H. c #DED7D0",
"J. c #E1D6CC",
"K. c #F8E6D6",
"L. c #F5E4D9",
"P. c None",
/* pixels */
"P.P.P.P.P.P.P.P.P.P.P.P.P.P.P.P.P.P.P.P.P.P.P.P.P.P.P.P.P.P.P.P.",
"P.P.P.P.P.P.P.P.P.P.P.P.P.P.P.P.P.P.P.P.P.P.P.P.P.P.P.P.P.P.P.P.",
"P.P.P.P.P.P.P.P.P.P.P.P.P.P.P.P.P.P.P.P.P.P.P.P.P.P.P.P.P.P.P.P.",
"P.P.P.P.P.P.P.P.P.P.P.P.P.P.P.P.P.P.P.P.P.P.P.P.P.P.P.P.P.P.P.P.",
"P.P.P.P.P.P.P.P.P.P.P.P.P.P.P.P.P.P.P.P.P.P.P.P.P.P.P.P.P.P.P.P.",
"P.P.P.P.P.P.P.P.P.P.P.P.P.P.P.P.P.P.P.P.P.P.P.P.P.P.P.P.P.P.P.P.",
"P.P.P.P.P.P.P.P.P.P.P.r r r P.P.P.P.P.P.P.P.P.P.P.P.P.P.P.P.P.P.",
"P.P.P.P.P.P.P.P.P.P.! ^ ^ ) r r E _ P.P.P.P.P.P.P.P.P.P.P.P.P.P.",
"P.P.P.P.P.P.P.P.P.Q ^ ` ^ R Y ~ ^ ( W r P.P.P.P.P.P.P.P.P.P.P.P.",
"P.P.P.P.P.P.P.P.r ^ ` ^ R Y e T T R ~ ( W P.P.P.P.P.P.P.P.P.P.P.",
"P.P.P.P.P.P.P.P.g ^ ~ w 9 9 e e e e Y T / s P.P.P.P.P.P.P.P.P.P.",
"P.P.P.P.P.P.P.P.P.g f 1 u a 7 5 9 e e e e 3 P.P.P.P.P.P.P.P.P.P.",
"P.P.P.P.P.P.P.P.P.P.P.@.p.p.j 4 < w e Y e t - P.P.P.P.P.P.P.P.P.",
"P.P.P.P.P.P.P.P.P.P.P.A.n.A.Z.Z.&.8 w w w w = P.P.P.P.P.P.P.P.P.",
"P.P.P.P.P.P.P.P.P.P.D.J t.K % H.d.1 5 : ; 7 = P.P.P.P.P.P.P.P.P.",
"P.P.P.P.P.P.P.P.P.b.F.$ t.h # G.l.1 6 < ' u - P.P.P.P.P.P.P.P.P.",
"P.P.P.P.P.P.P.P.1.N.L.J.V.S.J.K.m.d i { ,.+.P.P.P.P.P.P.P.P.P.P.",
"P.P.P.P.P.P.P.P.2.k.N.B.x.B.N.C.M.s.4.#.<.@.P.P.P.P.P.P.P.P.P.P.",
"P.P.P.P.P.P.P.P.P.,.:.O.y.y.i.x.B.c.a.2.%.P.P.P.P.P.P.P.P.P.P.P.",
"P.P.P.P.P.P.P.P.P.P.P.X.u.g.g.g.k.f.[ ] P.P.P.P.P.P.P.P.P.P.P.P.",
"P.P.P.P.P.P.P.P.P.P.P.o  .*.*.o.=.X.n X P.P.P.P.P.P.P.P.P.P.P.P.",
"P.P.P.P.P.P.P.P.P.P.. x S D D F N m z x . P.P.P.P.P.P.P.P.P.P.P.",
"P.P.P.P.P.P.P.P.P.P.. c 8.0.w.9.k l z c   P.P.P.P.P.P.P.P.P.P.P.",
"P.P.P.P.P.P.P.P.P.P.  z 5.6.7.5.k l z l   P.P.P.P.P.P.P.P.P.P.P.",
"P.P.P.P.P.P.P.P.P.P.o c 8.e.q.r.V B A A M P.P.P.P.P.P.P.P.P.P.P.",
"P.P.P.P.P.P.P.P.P.P.| b C Z S $.j.z.z.z.;.P.P.P.P.P.P.P.P.P.P.P.",
"P.P.P.P.P.P.P.P.P.P.P.H G v n ..k.v.B.v.3.P.P.P.P.P.P.P.P.P.P.P.",
"P.P.P.P.P.P.P.P.P.P.P.L U O * 2 } h.g.k.2.P.P.P.P.P.P.P.P.P.P.P.",
"P.P.P.P.P.P.P.P.P.P.P.P U + 5 0 y #.-.>.P.P.P.P.P.P.P.P.P.P.P.P.",
"P.P.P.P.P.P.P.P.P.P.P.P.I @ 9 Y 7 p P.P.P.P.P.P.P.P.P.P.P.P.P.P.",
"P.P.P.P.P.P.P.P.P.P.P.P.- 2 3 9 q > P.P.P.P.P.P.P.P.P.P.P.P.P.P.",
"P.P.P.P.P.P.P.P.P.P.P.P.& * & = , P.P.P.P.P.P.P.P.P.P.P.P.P.P.P."
};
