/* XPM */
static const char *p_left1[] = {
/* columns rows colors chars-per-pixel */
"32 32 161 2 ",
"   c #3D1805",
".  c #3E1504",
"X  c #043906",
"o  c #07370A",
"O  c #0C3708",
"+  c #033908",
"@  c #19370B",
"#  c #08381C",
"$  c #382C1C",
"%  c #303131",
"&  c #383331",
"*  c #3D3E3F",
"=  c #401606",
"-  c #491707",
";  c #431A06",
":  c #4B1A03",
">  c #411B0A",
",  c #581E07",
"<  c #511A03",
"1  c #48220B",
"2  c #56200A",
"3  c #5E240D",
"4  c #5A2405",
"5  c #412815",
"6  c #4A2717",
"7  c #5F2712",
"8  c #662D07",
"9  c #6D2D06",
"0  c #67280A",
"q  c #6B2D0A",
"w  c #62260B",
"e  c #722E02",
"r  c #712F09",
"t  c #743205",
"y  c #7C3502",
"u  c #7D3B07",
"i  c #72320B",
"p  c #773E0F",
"a  c #7C3D0C",
"s  c #632C16",
"d  c #6A2F18",
"f  c #663117",
"g  c #6E3811",
"h  c #67311A",
"j  c #763C14",
"k  c #793E10",
"l  c #493C38",
"z  c #633823",
"x  c #044809",
"c  c #025306",
"v  c #035906",
"b  c #05540A",
"n  c #04590B",
"m  c #08591F",
"M  c #244D0C",
"N  c #25570E",
"B  c #2A4512",
"V  c #295F19",
"C  c #2E511E",
"Z  c #0B7916",
"A  c #286017",
"S  c #286318",
"D  c #287517",
"F  c #367C1E",
"G  c #1C5F21",
"H  c #056021",
"J  c #096332",
"K  c #337320",
"L  c #56423B",
"P  c #14424F",
"I  c #164F51",
"U  c #164857",
"Y  c #2C5654",
"T  c #265F69",
"R  c #176468",
"E  c #186767",
"W  c #166771",
"Q  c #196D7E",
"!  c #336568",
"~  c #4A5F58",
"^  c #833602",
"/  c #833902",
"(  c #8A3C03",
")  c #873B12",
"_  c #83410B",
"`  c #974704",
"'  c #9D4C04",
"]  c #964909",
"[  c #934808",
"{  c #A35204",
"}  c #87462C",
"|  c #89573A",
" . c #935E35",
".. c #A04E35",
"X. c #9A6336",
"o. c #AB643C",
"O. c #CC6B3E",
"+. c #F17A3E",
"@. c #A95E42",
"#. c #99724E",
"$. c #A6634F",
"%. c #BC6747",
"&. c #AB7B42",
"*. c #B16D50",
"=. c #BA725C",
"-. c #A67562",
";. c #C96D42",
":. c #C66A49",
">. c #D4754F",
",. c #CA7659",
"<. c #CF785C",
"1. c #C57350",
"2. c #D07756",
"3. c #D17D5C",
"4. c #DA7A56",
"5. c #C57E61",
"6. c #128121",
"7. c #148E25",
"8. c #279836",
"9. c #269736",
"0. c #2D9741",
"q. c #31A748",
"w. c #34A848",
"e. c #3AA54A",
"r. c #4C9648",
"t. c #B9866D",
"y. c #F8844C",
"u. c #E58A5E",
"i. c #F68A52",
"p. c #C58767",
"a. c #D48967",
"s. c #C89177",
"d. c #E59167",
"f. c #F6986A",
"g. c #E89A73",
"h. c #F49C73",
"j. c #F29978",
"k. c #DCA07F",
"l. c #E2A372",
"z. c #FCA475",
"x. c #FEAB7E",
"c. c #F6A579",
"v. c #CF9883",
"b. c #D5A38F",
"n. c #E9A786",
"m. c #F4AC87",
"M. c #FCAA81",
"N. c #F5A782",
"B. c #EDB99C",
"V. c #F6B391",
"C. c #CBC3BF",
"Z. c #D7C6BA",
"A. c #E3CABC",
"S. c #CECAC7",
"D. c #DED6CD",
"F. c #DED7D0",
"G. c #E1D6CC",
"H. c #F8E6D6",
"J. c #F5E4D9",
"K. c #F0ECE6",
"L. c None",
/* pixels */
"L.L.L.L.L.L.L.L.L.L.L.L.L.L.L.L.L.L.L.L.L.L.L.L.L.L.L.L.L.L.L.L.",
"L.L.L.L.L.L.L.L.L.L.L.L.L.L.L.L.L.L.L.L.L.L.L.L.L.L.L.L.L.L.L.L.",
"L.L.L.L.L.L.L.L.L.L.L.L.L.L.L.L.L.L.L.L.L.L.L.L.L.L.L.L.L.L.L.L.",
"L.L.L.L.L.L.L.L.L.L.L.L.L.L.L.L.L.L.L.L.L.L.L.L.L.L.L.L.L.L.L.L.",
"L.L.L.L.L.L.L.L.L.L.L.L.L.L.L.L.L.L.L.L.L.L.L.L.L.L.L.L.L.L.L.L.",
"L.L.L.L.L.L.L.L.L.L.L.L.L.L.L.L.L.L.L.L.L.L.L.L.L.L.L.L.L.L.L.L.",
"L.L.L.L.L.L.L.L.L.L.L.j a p L.L.L.L.L.L.L.L.L.L.L.L.L.L.L.L.L.L.",
"L.L.L.L.L.L.L.L.L.L._ ' ' ] u u u u L.L.L.L.L.L.L.L.L.L.L.L.L.L.",
"L.L.L.L.L.L.L.L.L._ ' { ' ( ^ ` ' ] u p L.L.L.L.L.L.L.L.L.L.L.L.",
"L.L.L.L.L.L.L.L.p ' { ' ( ^ y / / ( ' ] _ L.L.L.L.L.L.L.L.L.L.L.",
"L.L.L.L.L.L.L.L.k ' ` t e e y y y y ^ / [ g L.L.L.L.L.L.L.L.L.L.",
"L.L.L.L.L.L.L.L.L.j i 3 s f q 9 e y y y y 4 L.L.L.L.L.L.L.L.L.L.",
"L.L.L.L.L.L.L.L.L.L.L.$.p.p.z 1 2 t y ^ y i > L.L.L.L.L.L.L.L.L.",
"L.L.L.L.L.L.L.L.L.L.K.Z.b.Z.C.Z.-.w t t t t : L.L.L.L.L.L.L.L.L.",
"L.L.L.L.L.L.L.L.L.L.S.l t.L * F.s.3 9 < , q : L.L.L.L.L.L.L.L.L.",
"L.L.L.L.L.L.L.L.L.v.S.& t.l % D.k.3 0 2 } s > L.L.L.L.L.L.L.L.L.",
"L.L.L.L.L.L.L.L.>.m.J.G.B.A.G.H.n.h d ..,.@.L.L.L.L.L.L.L.L.L.L.",
"L.L.L.L.L.L.L.L.2.h.m.M.z.M.m.V.N.a.5.%.<.*.L.L.L.L.L.L.L.L.L.L.",
"L.L.L.L.L.L.L.L.L.,.>.+.y.y.i.z.M.c.a.3.=.L.L.L.L.L.L.L.L.L.L.L.",
"L.L.L.L.L.L.L.L.L.L.L.o.u.f.f.f.h.d. .| L.L.L.L.L.L.L.L.L.L.L.L.",
"L.L.L.L.L.L.L.L.L.L.L.@ X.;.;.O.:.o.M O L.L.L.L.L.L.L.L.L.L.L.L.",
"L.L.L.L.L.L.L.L.L.L.o b D F F K B N v b + L.L.L.L.L.L.L.L.L.L.L.",
"L.L.L.L.L.L.L.L.L.L.X n 9.q.q.0.x c v n X L.L.L.L.L.L.L.L.L.L.L.",
"L.L.L.L.L.L.L.L.L.L.o n 6.7.7.6.x c v c X L.L.L.L.L.L.L.L.L.L.L.",
"L.L.L.L.L.L.L.L.L.L.X n 8.w.e.r.C V S A B L.L.L.L.L.L.L.L.L.L.L.",
"L.L.L.L.L.L.L.L.L.L.# m Z Z D &.g.l.l.l.1.L.L.L.L.L.L.L.L.L.L.L.",
"L.L.L.L.L.L.L.L.L.L.I E J H G #.j.x.x.x.4.L.L.L.L.L.L.L.L.L.L.L.",
"L.L.L.L.L.L.L.= : 5 Y Q W R R ! -.j.h.h.3.L.L.L.L.L.L.L.L.L.L.L.",
"L.L.L.L.L.L.L.; t r $ T U P P U ~ %.O.:.L.L.L.L.L.L.L.L.L.L.L.L.",
"L.L.L.L.L.L.L.- r y 8 $ L.L.L.L.6 ) ) 7 L.L.L.L.L.L.L.L.L.L.L.L.",
"L.L.L.L.L.L.L.L.1 i 9   L.L.L.; 8 t q = L.L.L.L.L.L.L.L.L.L.L.L.",
"L.L.L.L.L.L.L.L.L.: : L.L.L.L.  : : : . L.L.L.L.L.L.L.L.L.L.L.L."
};
