/* XPM */
static const char *p_right1[] = {
/* columns rows colors chars-per-pixel */
"32 32 165 2 ",
"   c #3E1604",
".  c #3E1808",
"X  c #3B1904",
"o  c #033A05",
"O  c #043908",
"+  c #0A3709",
"@  c #1C360A",
"#  c #073B15",
"$  c #3A2B1E",
"%  c #2F3232",
"&  c #383231",
"*  c #451B06",
"=  c #4A1A03",
"-  c #461604",
";  c #561F09",
":  c #591E09",
">  c #501B02",
",  c #4A200B",
"<  c #5B260D",
"1  c #5D2204",
"2  c #472816",
"3  c #5D2711",
"4  c #662D05",
"5  c #6C2D07",
"6  c #60260D",
"7  c #652D0A",
"8  c #6D2E0B",
"9  c #722E04",
"0  c #6B3005",
"q  c #733107",
"w  c #7C3502",
"e  c #7E3B06",
"r  c #723209",
"t  c #753C0E",
"y  c #7A3C0C",
"u  c #652B14",
"i  c #6E2C17",
"p  c #69301A",
"a  c #703612",
"s  c #763E10",
"d  c #793D10",
"f  c #423F3E",
"g  c #4A3931",
"h  c #613825",
"j  c #04450B",
"k  c #064F0C",
"l  c #015504",
"z  c #025906",
"x  c #035608",
"c  c #035A09",
"v  c #224F0D",
"b  c #27570F",
"n  c #264010",
"m  c #2E4713",
"M  c #285E19",
"N  c #2D521D",
"B  c #04621E",
"V  c #087E14",
"C  c #0D731A",
"Z  c #296017",
"A  c #26631B",
"S  c #27751A",
"D  c #347C1E",
"F  c #065A20",
"G  c #1F5D23",
"H  c #0B642F",
"J  c #377121",
"K  c #54423B",
"L  c #13444F",
"P  c #144B53",
"I  c #155151",
"U  c #2C5657",
"Y  c #19636E",
"T  c #186B6A",
"R  c #1A6D7F",
"E  c #236169",
"W  c #356465",
"Q  c #4B5F59",
"!  c #813502",
"~  c #833902",
"^  c #893C03",
"/  c #823D09",
"(  c #883A13",
")  c #82400C",
"_  c #964906",
"`  c #9B4C04",
"'  c #904408",
"]  c #954606",
"[  c #A04C05",
"{  c #A35202",
"}  c #8A452C",
"|  c #885534",
" . c #955C36",
".. c #A14F32",
"X. c #AE5E3B",
"o. c #9A633A",
"O. c #A56A3A",
"+. c #A45D41",
"@. c #9C714E",
"#. c #AA664C",
"$. c #B86947",
"%. c #A67C45",
"&. c #B56A53",
"*. c #A9775E",
"=. c #A2755E",
"-. c #C76B44",
";. c #C86C42",
":. c #D26647",
">. c #C4734C",
",. c #D8734E",
"<. c #CA7758",
"1. c #C27F5F",
"2. c #CC7959",
"3. c #CC7254",
"4. c #D27D5D",
"5. c #D87756",
"6. c #F67745",
"7. c #12811F",
"8. c #188B28",
"9. c #148821",
"0. c #28973A",
"q. c #30A845",
"w. c #35A64A",
"e. c #39A54B",
"r. c #4B9649",
"t. c #B98672",
"y. c #F7864C",
"u. c #FB8149",
"i. c #E5895F",
"p. c #F98855",
"a. c #C88162",
"s. c #C5896D",
"d. c #D48960",
"f. c #D38B69",
"g. c #C89274",
"h. c #E49167",
"j. c #F5996B",
"k. c #EE9775",
"l. c #E19C70",
"z. c #F59B73",
"x. c #E2A373",
"c. c #FCA674",
"v. c #FDAA7E",
"b. c #F5A67C",
"n. c #D09880",
"m. c #DBA080",
"M. c #D4A290",
"N. c #E4A180",
"B. c #FCAC82",
"V. c #F3A986",
"C. c #F9B18C",
"Z. c #EFB79E",
"A. c #CCC4BF",
"S. c #DBC8BF",
"D. c #D7C5B8",
"F. c #E4C9B8",
"G. c #CEC8C4",
"H. c #CECFCE",
"J. c #DFD6D2",
"K. c #E0D7CE",
"L. c #E1D4C5",
"P. c #F8E5D8",
"I. c #F4E5D6",
"U. c #F1EDE8",
"Y. c None",
/* pixels */
"Y.Y.Y.Y.Y.Y.Y.Y.Y.Y.Y.Y.Y.Y.Y.Y.Y.Y.Y.Y.Y.Y.Y.Y.Y.Y.Y.Y.Y.Y.Y.Y.",
"Y.Y.Y.Y.Y.Y.Y.Y.Y.Y.Y.Y.Y.Y.Y.Y.Y.Y.Y.Y.Y.Y.Y.Y.Y.Y.Y.Y.Y.Y.Y.Y.",
"Y.Y.Y.Y.Y.Y.Y.Y.Y.Y.Y.Y.Y.Y.Y.Y.Y.Y.Y.Y.Y.Y.Y.Y.Y.Y.Y.Y.Y.Y.Y.Y.",
"Y.Y.Y.Y.Y.Y.Y.Y.Y.Y.Y.Y.Y.Y.Y.Y.Y.Y.Y.Y.Y.Y.Y.Y.Y.Y.Y.Y.Y.Y.Y.Y.",
"Y.Y.Y.Y.Y.Y.Y.Y.Y.Y.Y.Y.Y.Y.Y.Y.Y.Y.Y.Y.Y.Y.Y.Y.Y.Y.Y.Y.Y.Y.Y.Y.",
"Y.Y.Y.Y.Y.Y.Y.Y.Y.Y.Y.Y.Y.Y.Y.Y.Y.Y.Y.Y.Y.Y.Y.Y.Y.Y.Y.Y.Y.Y.Y.Y.",
"Y.Y.Y.Y.Y.Y.Y.Y.Y.Y.Y.Y.Y.Y.Y.Y.Y.Y.t y t Y.Y.Y.Y.Y.Y.Y.Y.Y.Y.Y.",
"Y.Y.Y.Y.Y.Y.Y.Y.Y.Y.Y.Y.Y.Y.y e e ~ _ [ ` ) Y.Y.Y.Y.Y.Y.Y.Y.Y.Y.",
"Y.Y.Y.Y.Y.Y.Y.Y.Y.Y.Y.Y.d / _ ` _ ! ^ ` { ` ) Y.Y.Y.Y.Y.Y.Y.Y.Y.",
"Y.Y.Y.Y.Y.Y.Y.Y.Y.Y.Y.) ` _ ~ ~ ~ w w ^ ` { ` s Y.Y.Y.Y.Y.Y.Y.Y.",
"Y.Y.Y.Y.Y.Y.Y.Y.Y.Y.a ' ~ ~ w ! w ! 9 9 w ] ` y Y.Y.Y.Y.Y.Y.Y.Y.",
"Y.Y.Y.Y.Y.Y.Y.Y.Y.Y.1 w w w w 9 0 8 p u 6 a t Y.Y.Y.Y.Y.Y.Y.Y.Y.",
"Y.Y.Y.Y.Y.Y.Y.Y.Y.* r w w ! r : , h s.a.#.Y.Y.Y.Y.Y.Y.Y.Y.Y.Y.Y.",
"Y.Y.Y.Y.Y.Y.Y.Y.Y.= w w w w 6 *.D.A.D.M.S.U.Y.Y.Y.Y.Y.Y.Y.Y.Y.Y.",
"Y.Y.Y.Y.Y.Y.Y.Y.Y.* 5 : > 5 < g.J.f K t.f H.Y.Y.Y.Y.Y.Y.Y.Y.Y.Y.",
"Y.Y.Y.Y.Y.Y.Y.Y.Y.. u } ; 7 < m.J.% g t.& G.n.Y.Y.Y.Y.Y.Y.Y.Y.Y.",
"Y.Y.Y.Y.Y.Y.Y.Y.Y.Y.+.<...i p N.P.K.F.Z.L.I.V.5.Y.Y.Y.Y.Y.Y.Y.Y.",
"Y.Y.Y.Y.Y.Y.Y.Y.Y.Y.#.2.$.1.f.b.C.B.v.c.B.V.z.2.Y.Y.Y.Y.Y.Y.Y.Y.",
"Y.Y.Y.Y.Y.Y.Y.Y.Y.Y.Y.&.4.d.b.B.c.p.y.u.6.,.3.Y.Y.Y.Y.Y.Y.Y.Y.Y.",
"Y.Y.Y.Y.Y.Y.Y.Y.Y.Y.Y.Y.|  .h.z.z.j.j.i.X.Y.Y.Y.Y.Y.Y.Y.Y.Y.Y.Y.",
"Y.Y.Y.Y.Y.Y.Y.Y.Y.Y.Y.Y.+ v O.-.;.;.;.o.@ Y.Y.Y.Y.Y.Y.Y.Y.Y.Y.Y.",
"Y.Y.Y.Y.Y.Y.Y.Y.Y.Y.Y.O k x b m J D D S k + Y.Y.Y.Y.Y.Y.Y.Y.Y.Y.",
"Y.Y.Y.Y.Y.Y.Y.Y.Y.Y.Y.o x z x j 0.q.w.0.c o Y.Y.Y.Y.Y.Y.Y.Y.Y.Y.",
"Y.Y.Y.Y.Y.Y.Y.Y.Y.Y.Y.o l z l j 9.9.8.7.z o Y.Y.Y.Y.Y.Y.Y.Y.Y.Y.",
"Y.Y.Y.Y.Y.Y.Y.Y.Y.Y.Y.n Z A M N r.e.w.0.c o Y.Y.Y.Y.Y.Y.Y.Y.Y.Y.",
"Y.Y.Y.Y.Y.Y.Y.Y.Y.Y.Y.>.x.x.x.l.%.S V C F # Y.Y.Y.Y.Y.Y.Y.Y.Y.Y.",
"Y.Y.Y.Y.Y.Y.Y.Y.Y.Y.Y.5.v.v.B.z.@.G B H T I Y.Y.Y.Y.Y.Y.Y.Y.Y.Y.",
"Y.Y.Y.Y.Y.Y.Y.Y.Y.Y.Y.4.j.z.k.=.W Y Y Y R U 2 =   Y.Y.Y.Y.Y.Y.Y.",
"Y.Y.Y.Y.Y.Y.Y.Y.Y.Y.Y.Y.-.:.$.Q P L L P E $ 0 q = Y.Y.Y.Y.Y.Y.Y.",
"Y.Y.Y.Y.Y.Y.Y.Y.Y.Y.Y.Y.3 ( ( 2 Y.Y.Y.Y.$ 7 w 9 = Y.Y.Y.Y.Y.Y.Y.",
"Y.Y.Y.Y.Y.Y.Y.Y.Y.Y.Y.Y.- 4 q 4 * Y.Y.Y.X 0 r , Y.Y.Y.Y.Y.Y.Y.Y.",
"Y.Y.Y.Y.Y.Y.Y.Y.Y.Y.Y.Y.  = = =   Y.Y.Y.Y.= = Y.Y.Y.Y.Y.Y.Y.Y.Y."
};
