/* XPM */
static const char *p_right2[] = {
/* columns rows colors chars-per-pixel */
"32 32 166 2 ",
"   c #3C1807",
".  c #07340D",
"X  c #083708",
"o  c #173809",
"O  c #1C390A",
"+  c #372718",
"@  c #3C2317",
"#  c #2F3232",
"$  c #383231",
"%  c #471C07",
"&  c #4A1A04",
"*  c #421C09",
"=  c #591E09",
"-  c #501B02",
";  c #4D290B",
":  c #55230A",
">  c #5C250D",
",  c #5A2206",
"<  c #462212",
"1  c #593C1F",
"2  c #6C2D07",
"3  c #60260D",
"4  c #672B0A",
"5  c #6D2E0B",
"6  c #722F04",
"7  c #6B3006",
"8  c #743204",
"9  c #7C3502",
"0  c #7F3C07",
"q  c #733308",
"w  c #753D0F",
"e  c #7A3C0D",
"r  c #652C15",
"t  c #6E2C17",
"y  c #69301A",
"u  c #723714",
"i  c #783F11",
"p  c #463C38",
"a  c #613825",
"s  c #044E0A",
"d  c #07420B",
"f  c #1E4508",
"g  c #025206",
"h  c #025907",
"j  c #04520A",
"k  c #035A0B",
"l  c #1D4E12",
"z  c #085E18",
"x  c #075B11",
"c  c #165514",
"v  c #2A4616",
"b  c #245612",
"n  c #255F15",
"m  c #05621E",
"M  c #0B7C14",
"N  c #0B7312",
"B  c #10731E",
"V  c #356119",
"C  c #27751A",
"Z  c #347D1E",
"A  c #32741D",
"S  c #07582D",
"D  c #19483F",
"F  c #3B5120",
"G  c #056223",
"H  c #5D421E",
"J  c #406F17",
"K  c #44403D",
"L  c #54423B",
"P  c #1A3E42",
"I  c #12444A",
"U  c #154552",
"Y  c #295049",
"T  c #255F65",
"R  c #186367",
"E  c #18636D",
"W  c #16646E",
"Q  c #176F75",
"!  c #2A646F",
"~  c #715945",
"^  c #813502",
"/  c #833903",
"(  c #893C03",
")  c #823D0A",
"_  c #82410C",
"`  c #954906",
"'  c #9B4C05",
"]  c #904508",
"[  c #954605",
"{  c #A04C05",
"}  c #A45202",
"|  c #894530",
" . c #865535",
".. c #955736",
"X. c #A04F33",
"o. c #AB5A35",
"O. c #9A633A",
"+. c #A76338",
"@. c #C0613D",
"#. c #A55D42",
"$. c #927E40",
"%. c #A9674A",
"&. c #B36844",
"*. c #AD6751",
"=. c #B06A53",
"-. c #A9775E",
";. c #C76D40",
":. c #CA6C44",
">. c #CC754F",
",. c #DC724A",
"<. c #C76E51",
"1. c #CD7455",
"2. c #CB775C",
"3. c #CD795A",
"4. c #C67B5C",
"5. c #D27555",
"6. c #D17F59",
"7. c #F67744",
"8. c #12811D",
"9. c #158D23",
"0. c #289637",
"q. c #29963B",
"w. c #2C9942",
"e. c #35A646",
"r. c #34A64B",
"t. c #4B9348",
"y. c #B18A59",
"u. c #BF8D63",
"i. c #B59560",
"p. c #B98672",
"a. c #F9834A",
"s. c #E5895F",
"d. c #F98855",
"f. c #C78568",
"g. c #D58A66",
"h. c #CC9D66",
"j. c #DA9B6F",
"k. c #C89274",
"l. c #E5926C",
"z. c #EE906E",
"x. c #F5996B",
"c. c #EF9871",
"v. c #F59C73",
"b. c #DCA472",
"n. c #FCA475",
"m. c #F9AC7E",
"M. c #F7A47D",
"N. c #D29780",
"B. c #DBA081",
"V. c #D4A290",
"C. c #E4A081",
"Z. c #F4AA81",
"A. c #FBAD83",
"S. c #F1AA8C",
"D. c #F9B18C",
"F. c #EFB79E",
"G. c #CCC4BF",
"H. c #D8C6BA",
"J. c #E4C9B8",
"K. c #CECBC8",
"L. c #DFD6D2",
"P. c #E0D7CE",
"I. c #E2D3C5",
"U. c #F6E5D8",
"Y. c #F0EBE6",
"T. c None",
/* pixels */
"T.T.T.T.T.T.T.T.T.T.T.T.T.T.T.T.T.T.T.T.T.T.T.T.T.T.T.T.T.T.T.T.",
"T.T.T.T.T.T.T.T.T.T.T.T.T.T.T.T.T.T.T.T.T.T.T.T.T.T.T.T.T.T.T.T.",
"T.T.T.T.T.T.T.T.T.T.T.T.T.T.T.T.T.T.T.T.T.T.T.T.T.T.T.T.T.T.T.T.",
"T.T.T.T.T.T.T.T.T.T.T.T.T.T.T.T.T.T.T.T.T.T.T.T.T.T.T.T.T.T.T.T.",
"T.T.T.T.T.T.T.T.T.T.T.T.T.T.T.T.T.T.T.T.T.T.T.T.T.T.T.T.T.T.T.T.",
"T.T.T.T.T.T.T.T.T.T.T.T.T.T.T.T.T.T.T.T.T.T.T.T.T.T.T.T.T.T.T.T.",
"T.T.T.T.T.T.T.T.T.T.T.T.T.T.T.T.T.T.w e w T.T.T.T.T.T.T.T.T.T.T.",
"T.T.T.T.T.T.T.T.T.T.T.T.T.T.e 0 0 / ' { ' _ T.T.T.T.T.T.T.T.T.T.",
"T.T.T.T.T.T.T.T.T.T.T.T.i ) ` ' ` ^ ( ' } ' _ T.T.T.T.T.T.T.T.T.",
"T.T.T.T.T.T.T.T.T.T.T._ ' ` / / / 9 9 ( ' } ' i T.T.T.T.T.T.T.T.",
"T.T.T.T.T.T.T.T.T.T.u ] / / 9 ^ 9 ^ 6 6 9 [ ' e T.T.T.T.T.T.T.T.",
"T.T.T.T.T.T.T.T.T.T., 9 9 9 9 6 7 5 y r 3 u e T.T.T.T.T.T.T.T.T.",
"T.T.T.T.T.T.T.T.T.% q 9 9 ^ q = < a f.f.%.T.T.T.T.T.T.T.T.T.T.T.",
"T.T.T.T.T.T.T.T.T.& 9 9 8 9 3 -.H.G.H.V.H.Y.T.T.T.T.T.T.T.T.T.T.",
"T.T.T.T.T.T.T.T.T.% 2 = - 2 > k.L.p L p.K K.T.T.T.T.T.T.T.T.T.T.",
"T.T.T.T.T.T.T.T.T.* r | : 4 > B.L.# p p.$ K.N.T.T.T.T.T.T.T.T.T.",
"T.T.T.T.T.T.T.T.T.T.#.3.X.t y C.U.P.J.F.I.U.S.5.T.T.T.T.T.T.T.T.",
"T.T.T.T.T.T.T.T.T.T.*.3.&.4.g.Z.D.A.m.n.Z.Z.v.3.T.T.T.T.T.T.T.T.",
"T.T.T.T.T.T.T.T.T.T.T.=.6.g.M.A.n.d.a.a.7.,.1.T.T.T.T.T.T.T.T.T.",
"T.T.T.T.T.T.T.T.T.T.T.~  ...l.v.v.x.x.s.o.T.T.T.T.T.T.T.T.T.T.T.",
"T.T.T.T.T.T.T.T.T.T.T.X X O +.:.:.;.:.O.o . T.T.T.T.T.T.T.T.T.T.",
"T.T.T.T.T.T.T.T.T.T.X j g j b v A Z Z C j s d T.T.T.T.T.T.T.T.T.",
"T.T.T.T.T.T.T.T.T.v c h h h g s w.r.e.0.k h s . T.T.T.T.T.T.T.T.",
"T.T.T.T.T.T.T.T.4.j.i.V n b c B 9.9.9.8.k g j v T.T.T.T.T.T.T.T.",
"T.T.T.T.T.T.T.T.5.n.m.b.h.$.t.r.e.r.r.q.x l F u.1.T.T.T.T.T.T.T.",
"T.T.T.T.T.T.T.T.2.x.n.z.&.J M M M M M N c y.l.c.1.T.T.T.T.T.T.T.",
"T.T.T.T.T.T.T.T.T.<.@.o.: f z m G m m S D %.,.>.T.T.T.T.T.T.T.T.",
"T.T.T.T.T.T.T.T.T.T.: 9 q ; Y R E E Q W U T.T.T.T.T.T.T.T.T.T.T.",
"T.T.T.T.T.T.T.T.T.T.* 9 9 8 @ P I U ! T P T.T.T.T.T.T.T.T.T.T.T.",
"T.T.T.T.T.T.T.T.T.T.T.: 8 8 & T.T.+ H 1 < T.T.T.T.T.T.T.T.T.T.T.",
"T.T.T.T.T.T.T.T.T.T.T.T.* &   T.T.& 6 8 4 * T.T.T.T.T.T.T.T.T.T.",
"T.T.T.T.T.T.T.T.T.T.T.T.T.T.T.T.T.  & & &   T.T.T.T.T.T.T.T.T.T."
};
