/* XPM */
static const char *p_right4[] = {
/* columns rows colors chars-per-pixel */
"32 32 165 2 ",
"   c #3E1607",
".  c #3F190A",
"X  c #043A07",
"o  c #053908",
"O  c #0C360A",
"+  c #053913",
"@  c #3A3F0D",
"#  c #3D2917",
"$  c #372416",
"%  c #2E3232",
"&  c #353331",
"*  c #401602",
"=  c #441C06",
"-  c #4A1A04",
";  c #441C08",
":  c #481C08",
">  c #4C1703",
",  c #501B02",
"<  c #561F09",
"1  c #591E09",
"2  c #402205",
"3  c #4D2A09",
"4  c #562009",
"5  c #5B260D",
"6  c #5D2205",
"7  c #4B2310",
"8  c #422514",
"9  c #642907",
"0  c #6C2D07",
"q  c #60260D",
"w  c #6D2E0A",
"e  c #632B0A",
"r  c #722E03",
"t  c #6B3006",
"y  c #743205",
"u  c #7C3402",
"i  c #7F3C06",
"p  c #723309",
"a  c #753D0F",
"s  c #7A3C0D",
"d  c #652B15",
"f  c #6E2C17",
"g  c #69301A",
"h  c #713714",
"j  c #763E10",
"k  c #7A3D11",
"l  c #5D3E22",
"z  c #4C3831",
"x  c #403E3F",
"c  c #613825",
"v  c #054B0D",
"b  c #1D480B",
"n  c #025506",
"m  c #015905",
"M  c #03530A",
"N  c #0F560E",
"B  c #04590B",
"V  c #11570A",
"C  c #1C570E",
"Z  c #085A10",
"A  c #204F0E",
"S  c #23590F",
"D  c #244A10",
"F  c #205213",
"G  c #225D14",
"H  c #216113",
"J  c #2B7219",
"K  c #1D4523",
"L  c #52721F",
"P  c #44403D",
"I  c #54423B",
"U  c #4B6522",
"Y  c #11464A",
"T  c #194346",
"R  c #3C4C47",
"E  c #275A5D",
"W  c #19656E",
"Q  c #256369",
"!  c #2A6772",
"~  c #2A6977",
"^  c #266D79",
"/  c #813502",
"(  c #833903",
")  c #893C03",
"_  c #823D0A",
"`  c #82410B",
"'  c #954906",
"]  c #9B4C05",
"[  c #904408",
"{  c #954605",
"}  c #A04C05",
"|  c #A45202",
" . c #8A452C",
".. c #885535",
"X. c #955C36",
"o. c #A14F32",
"O. c #8B6733",
"+. c #9A6B35",
"@. c #97713E",
"#. c #A56A3A",
"$. c #AA6939",
"%. c #C26C3F",
"&. c #A55D42",
"*. c #946B49",
"=. c #9B6A52",
"-. c #AB684F",
";. c #A9654B",
":. c #B86544",
">. c #B16852",
",. c #B66F58",
"<. c #A9775E",
"1. c #C36E40",
"2. c #C96E42",
"3. c #D76A43",
"4. c #CD765A",
"5. c #C27F5F",
"6. c #CC7758",
"7. c #D87350",
"8. c #D17D5D",
"9. c #F07A41",
"0. c #488C39",
"q. c #9A8646",
"w. c #B98572",
"e. c #F8844A",
"r. c #E48C5C",
"t. c #F58A55",
"y. c #C88162",
"u. c #C5896D",
"i. c #D48960",
"p. c #D38B69",
"a. c #D99967",
"s. c #D7976B",
"d. c #C89274",
"f. c #D2987D",
"g. c #EE9A6E",
"h. c #E89469",
"j. c #F69867",
"k. c #F59669",
"l. c #F49C72",
"z. c #FA9D75",
"x. c #DEA374",
"c. c #E2A27F",
"v. c #FCA575",
"b. c #F7A57C",
"n. c #FDAA7E",
"m. c #DBA080",
"M. c #D4A290",
"N. c #FDAB81",
"B. c #F4AB89",
"V. c #F4A883",
"C. c #FAB18C",
"Z. c #EFB79F",
"A. c #CCC4BF",
"S. c #DBC8BF",
"D. c #D7C5B8",
"F. c #E4CAB8",
"G. c #CDC8C1",
"H. c #CDCECD",
"J. c #DED6D1",
"K. c #E0D7CE",
"L. c #E1D3C6",
"P. c #F8E5D8",
"I. c #F4E4D4",
"U. c #F0EBE6",
"Y. c None",
/* pixels */
"Y.Y.Y.Y.Y.Y.Y.Y.Y.Y.Y.Y.Y.Y.Y.Y.Y.Y.Y.Y.Y.Y.Y.Y.Y.Y.Y.Y.Y.Y.Y.Y.",
"Y.Y.Y.Y.Y.Y.Y.Y.Y.Y.Y.Y.Y.Y.Y.Y.Y.Y.Y.Y.Y.Y.Y.Y.Y.Y.Y.Y.Y.Y.Y.Y.",
"Y.Y.Y.Y.Y.Y.Y.Y.Y.Y.Y.Y.Y.Y.Y.Y.Y.Y.Y.Y.Y.Y.Y.Y.Y.Y.Y.Y.Y.Y.Y.Y.",
"Y.Y.Y.Y.Y.Y.Y.Y.Y.Y.Y.Y.Y.Y.Y.Y.Y.Y.Y.Y.Y.Y.Y.Y.Y.Y.Y.Y.Y.Y.Y.Y.",
"Y.Y.Y.Y.Y.Y.Y.Y.Y.Y.Y.Y.Y.Y.Y.Y.Y.Y.Y.Y.Y.Y.Y.Y.Y.Y.Y.Y.Y.Y.Y.Y.",
"Y.Y.Y.Y.Y.Y.Y.Y.Y.Y.Y.Y.Y.Y.Y.Y.Y.Y.Y.Y.Y.Y.Y.Y.Y.Y.Y.Y.Y.Y.Y.Y.",
"Y.Y.Y.Y.Y.Y.Y.Y.Y.Y.Y.Y.Y.Y.Y.Y.Y.Y.a s a Y.Y.Y.Y.Y.Y.Y.Y.Y.Y.Y.",
"Y.Y.Y.Y.Y.Y.Y.Y.Y.Y.Y.Y.Y.Y.s i i ( ] } ] ` Y.Y.Y.Y.Y.Y.Y.Y.Y.Y.",
"Y.Y.Y.Y.Y.Y.Y.Y.Y.Y.Y.Y.k _ ' ] ' / ) ] | ] ` Y.Y.Y.Y.Y.Y.Y.Y.Y.",
"Y.Y.Y.Y.Y.Y.Y.Y.Y.Y.Y.` ] ' ( ( ( u u ) ] | ] j Y.Y.Y.Y.Y.Y.Y.Y.",
"Y.Y.Y.Y.Y.Y.Y.Y.Y.Y.h [ ( ( u / u / r r u { ] s Y.Y.Y.Y.Y.Y.Y.Y.",
"Y.Y.Y.Y.Y.Y.Y.Y.Y.Y.6 u u u u r t w g d q h a Y.Y.Y.Y.Y.Y.Y.Y.Y.",
"Y.Y.Y.Y.Y.Y.Y.Y.Y.: p u u / p 1 7 c u.y.;.Y.Y.Y.Y.Y.Y.Y.Y.Y.Y.Y.",
"Y.Y.Y.Y.Y.Y.Y.Y.Y.- u u y u q <.D.A.D.M.S.U.Y.Y.Y.Y.Y.Y.Y.Y.Y.Y.",
"Y.Y.Y.Y.Y.Y.Y.Y.Y.: 0 1 , 0 5 d.J.x I w.P H.Y.Y.Y.Y.Y.Y.Y.Y.Y.Y.",
"Y.Y.Y.Y.Y.Y.Y.Y.Y.. d  .< e 5 m.J.% z w.& G.f.Y.Y.Y.Y.Y.Y.Y.Y.Y.",
"Y.Y.Y.Y.Y.Y.Y.Y.Y.Y.&.6.o.f g c.P.K.F.Z.L.I.B.4.Y.Y.Y.Y.Y.Y.Y.Y.",
"Y.Y.Y.Y.Y.Y.Y.Y.Y.Y.-.6.:.5.p.b.C.B.n.v.N.V.l.4.Y.Y.Y.Y.Y.Y.Y.Y.",
"Y.Y.Y.Y.Y.Y.Y.Y.Y.Y.Y.>.8.i.b.N.v.t.e.e.9.7.6.Y.Y.Y.Y.Y.Y.Y.Y.Y.",
"Y.Y.Y.Y.Y.Y.Y.Y.Y.Y.Y.Y...X.h.l.l.k.j.r.$.Y.Y.Y.Y.Y.Y.Y.Y.Y.Y.Y.",
"Y.Y.Y.Y.Y.Y.Y.Y.Y.Y.Y.Y.O A #.2.3.3.2.+.C Y.Y.Y.Y.Y.Y.Y.Y.Y.Y.Y.",
"Y.Y.Y.Y.Y.Y.Y.Y.Y.Y.Y.o M M D U 1.%.L J B Y.Y.Y.Y.Y.Y.Y.Y.Y.Y.Y.",
"Y.Y.Y.Y.Y.Y.Y.Y.Y.Y.Y.X B B M F s.g.q.0.Z Y.Y.Y.Y.Y.Y.Y.Y.Y.Y.Y.",
"Y.Y.Y.Y.Y.Y.Y.Y.Y.Y.Y.X n m m G x.n.g.@.N Y.Y.Y.Y.Y.Y.Y.Y.Y.Y.Y.",
"Y.Y.Y.Y.Y.Y.Y.Y.Y.Y.Y.o M B m H x.N.z.#.V Y.Y.Y.Y.Y.Y.Y.Y.Y.Y.Y.",
"Y.Y.Y.Y.Y.Y.Y.Y.Y.Y.Y.Y.o v n S a.v.h.O.b Y.Y.Y.Y.Y.Y.Y.Y.Y.Y.Y.",
"Y.Y.Y.Y.Y.Y.Y.Y.Y.Y.Y.Y.Y.O + K =.,.*.@ 2 :   Y.Y.Y.Y.Y.Y.Y.Y.Y.",
"Y.Y.Y.Y.Y.Y.Y.Y.Y.Y.Y.Y.Y.Y.Y W ^ ~ R 3 u p - Y.Y.Y.Y.Y.Y.Y.Y.Y.",
"Y.Y.Y.Y.Y.Y.Y.Y.Y.Y.Y.Y.Y.Y.T Q ! E 8 y / y 2 Y.Y.Y.Y.Y.Y.Y.Y.Y.",
"Y.Y.Y.Y.Y.Y.Y.Y.Y.Y.Y.Y.Y.Y.$ l l # - y y 4 Y.Y.Y.Y.Y.Y.Y.Y.Y.Y.",
"Y.Y.Y.Y.Y.Y.Y.Y.Y.Y.Y.Y.Y.Y.= w y 9 = : = Y.Y.Y.Y.Y.Y.Y.Y.Y.Y.Y.",
"Y.Y.Y.Y.Y.Y.Y.Y.Y.Y.Y.Y.Y.Y.* > > > ; Y.Y.Y.Y.Y.Y.Y.Y.Y.Y.Y.Y.Y."
};
