/* XPM */
static const char *p_right3[] = {
/* columns rows colors chars-per-pixel */
"32 32 164 2 ",
"   c #3F1501",
".  c #3F190A",
"X  c #3D1D10",
"o  c #033A04",
"O  c #043909",
"+  c #0D3706",
"@  c #1C3A0D",
"#  c #342B1C",
"$  c #3B2414",
"%  c #2F3232",
"&  c #383231",
"*  c #471A05",
"=  c #4B1B04",
"-  c #441C08",
";  c #461501",
":  c #501B02",
">  c #581F04",
",  c #561F09",
"<  c #591E09",
"1  c #5B260D",
"2  c #5D2509",
"3  c #4B2310",
"4  c #6C2D07",
"5  c #62260E",
"6  c #6E2E0A",
"7  c #632B0A",
"8  c #712E04",
"9  c #782E07",
"0  c #6C3107",
"q  c #7C3502",
"w  c #7F3C06",
"e  c #723309",
"r  c #753C0E",
"t  c #7A3C0D",
"y  c #642A14",
"u  c #6E2C17",
"i  c #69301A",
"p  c #713714",
"a  c #763F11",
"s  c #7A3D11",
"d  c #4A3931",
"f  c #423F3E",
"g  c #613825",
"h  c #04450B",
"j  c #044E0C",
"k  c #015504",
"l  c #005805",
"z  c #045509",
"x  c #045A09",
"c  c #0C510F",
"v  c #155517",
"b  c #234D0C",
"n  c #27570F",
"m  c #264111",
"M  c #2E4713",
"N  c #285E19",
"B  c #2D521D",
"V  c #0A7414",
"C  c #296017",
"Z  c #26631B",
"A  c #237918",
"S  c #28731D",
"D  c #347C1E",
"F  c #085725",
"G  c #1B483F",
"H  c #377121",
"J  c #54423B",
"K  c #18444E",
"L  c #134555",
"P  c #28454B",
"I  c #205D5C",
"U  c #215D61",
"Y  c #813502",
"T  c #833903",
"R  c #893C03",
"E  c #823D0A",
"W  c #82410C",
"Q  c #954906",
"!  c #9B4C05",
"~  c #904508",
"^  c #954605",
"/  c #A04C05",
"(  c #A45202",
")  c #8A452C",
"_  c #885535",
"`  c #955C36",
"'  c #A14F32",
"]  c #AE5F3C",
"[  c #9A633A",
"{  c #A16237",
"}  c #A56A3A",
"|  c #A55D42",
" . c #B45C40",
".. c #906141",
"X. c #946554",
"o. c #AA684F",
"O. c #A9644B",
"+. c #BB6242",
"@. c #A97C44",
"#. c #B16852",
"$. c #A9775E",
"%. c #C76D41",
"&. c #C86C42",
"*. c #D36B4D",
"=. c #C4744A",
"-. c #D8744F",
";. c #C86F58",
":. c #CA7758",
">. c #C27F5F",
",. c #CC795A",
"<. c #CC7355",
"1. c #D27C5E",
"2. c #D77654",
"3. c #F67745",
"4. c #068113",
"5. c #12811F",
"6. c #188B28",
"7. c #148821",
"8. c #28973A",
"9. c #30A845",
"0. c #35A64A",
"q. c #39A54B",
"w. c #4B9649",
"e. c #B98672",
"r. c #F7864C",
"t. c #FB8149",
"y. c #E5895F",
"u. c #F98855",
"i. c #C88162",
"p. c #C5896D",
"a. c #D48960",
"s. c #D38B69",
"d. c #C89274",
"f. c #E49167",
"g. c #F69A6B",
"h. c #F1956B",
"j. c #E19C70",
"k. c #F49B73",
"l. c #E2A06E",
"z. c #E3A576",
"x. c #FCA674",
"c. c #FDAA7D",
"v. c #F5A67C",
"b. c #D09880",
"n. c #DBA080",
"m. c #D4A290",
"M. c #E4A180",
"N. c #FCAD83",
"B. c #F3A986",
"V. c #F9B18C",
"C. c #EFB79E",
"Z. c #CCC4BF",
"A. c #DBC8BF",
"S. c #D7C5B8",
"D. c #E4C9B8",
"F. c #CEC7C3",
"G. c #D0D0CF",
"H. c #DFD6D2",
"J. c #E0D7CE",
"K. c #E1D4C5",
"L. c #F8E5D8",
"P. c #F4E5D6",
"I. c #F2EDE8",
"U. c None",
/* pixels */
"U.U.U.U.U.U.U.U.U.U.U.U.U.U.U.U.U.U.U.U.U.U.U.U.U.U.U.U.U.U.U.U.",
"U.U.U.U.U.U.U.U.U.U.U.U.U.U.U.U.U.U.U.U.U.U.U.U.U.U.U.U.U.U.U.U.",
"U.U.U.U.U.U.U.U.U.U.U.U.U.U.U.U.U.U.U.U.U.U.U.U.U.U.U.U.U.U.U.U.",
"U.U.U.U.U.U.U.U.U.U.U.U.U.U.U.U.U.U.U.U.U.U.U.U.U.U.U.U.U.U.U.U.",
"U.U.U.U.U.U.U.U.U.U.U.U.U.U.U.U.U.U.U.U.U.U.U.U.U.U.U.U.U.U.U.U.",
"U.U.U.U.U.U.U.U.U.U.U.U.U.U.U.U.U.U.U.U.U.U.U.U.U.U.U.U.U.U.U.U.",
"U.U.U.U.U.U.U.U.U.U.U.U.U.U.U.U.U.U.r t r U.U.U.U.U.U.U.U.U.U.U.",
"U.U.U.U.U.U.U.U.U.U.U.U.U.U.t w w T ! / ! W U.U.U.U.U.U.U.U.U.U.",
"U.U.U.U.U.U.U.U.U.U.U.U.s E Q ! Q Y R ! ( ! W U.U.U.U.U.U.U.U.U.",
"U.U.U.U.U.U.U.U.U.U.U.W ! Q T T T q q R ! ( ! a U.U.U.U.U.U.U.U.",
"U.U.U.U.U.U.U.U.U.U.p ~ T T q Y q Y 8 8 q ^ ! t U.U.U.U.U.U.U.U.",
"U.U.U.U.U.U.U.U.U.U.2 q q q q 8 0 6 i y 5 p r U.U.U.U.U.U.U.U.U.",
"U.U.U.U.U.U.U.U.U.- e q q Y e < 3 g p.i.O.U.U.U.U.U.U.U.U.U.U.U.",
"U.U.U.U.U.U.U.U.U.= q q q q 5 $.S.Z.S.m.A.I.U.U.U.U.U.U.U.U.U.U.",
"U.U.U.U.U.U.U.U.U.* 4 < : 4 1 d.H.f J e.f G.U.U.U.U.U.U.U.U.U.U.",
"U.U.U.U.U.U.U.U.U.. y ) , 7 1 n.H.% d e.& F.b.U.U.U.U.U.U.U.U.U.",
"U.U.U.U.U.U.U.U.U.U.| :.' u i M.L.J.D.C.K.P.B.<.U.U.U.U.U.U.U.U.",
"U.U.U.U.U.U.U.U.U.U.o.,.+.>.s.v.V.N.c.x.N.B.k.,.U.U.U.U.U.U.U.U.",
"U.U.U.U.U.U.U.U.U.U.U.#.1.a.v.N.x.u.r.t.3.-.<.U.U.U.U.U.U.U.U.U.",
"U.U.U.U.U.U.U.U.U.U.U.U._ ` f.k.k.g.g.y.] U.U.U.U.U.U.U.U.U.U.U.",
"U.U.U.U.U.U.U.U.U.U.U.U.+ b } &.&.%.&.[ @ U.U.U.U.U.U.U.U.U.U.U.",
"U.U.U.U.U.U.U.U.U.U.U.O j z n M H D D S z O U.U.U.U.U.U.U.U.U.U.",
"U.U.U.U.U.U.U.U.U.U.U.o z x z h 8.9.0.8.x o U.U.U.U.U.U.U.U.U.U.",
"U.U.U.U.U.U.U.U.U.U.U.o l l k h 7.7.6.5.x O U.U.U.U.U.U.U.U.U.U.",
"U.U.U.U.U.U.U.U.U.U.U.m C Z N B w.q.0.8.x @ U.U.U.U.U.U.U.U.U.U.",
"U.U.U.U.U.U.U.U.U.U.U.=.l.z.z.j.@.A 4.V v ..U.U.U.U.U.U.U.U.U.U.",
"U.U.U.U.U.U.U.U.U.U.U.2.c.N.c.k.{ b c F G X.U.U.U.U.U.U.U.U.U.U.",
"U.U.U.U.U.U.U.U.U.U.U.1.k.g.h. .5 = # I L U.U.U.U.U.U.U.U.U.U.U.",
"U.U.U.U.U.U.U.U.U.U.U.U.;.*.+.5 9 8 # U K U.U.U.U.U.U.U.U.U.U.U.",
"U.U.U.U.U.U.U.U.U.U.U.U.U.U.y 6 q 8 $ P U.U.U.U.U.U.U.U.U.U.U.U.",
"U.U.U.U.U.U.U.U.U.U.U.U.U.U.- 6 0 > 1 X U.U.U.U.U.U.U.U.U.U.U.U.",
"U.U.U.U.U.U.U.U.U.U.U.U.U.U.U.= = ; *   U.U.U.U.U.U.U.U.U.U.U.U."
};
