/* XPM */
static const char *p_wait2[] = {
/* columns rows colors chars-per-pixel */
"32 32 161 2 ",
"   c #3D1806",
".  c #3E1703",
"X  c #013A05",
"o  c #08360E",
"O  c #07360B",
"+  c #143F10",
"@  c #382410",
"#  c #382719",
"$  c #273E13",
"%  c #3E3737",
"&  c #343839",
"*  c #393938",
"=  c #421602",
"-  c #451C06",
";  c #4B1A04",
":  c #441C09",
">  c #531E06",
",  c #581E07",
"<  c #5B1E0C",
"1  c #5E240D",
"2  c #5D280C",
"3  c #422414",
"4  c #572B15",
"5  c #5C3B1B",
"6  c #672C0A",
"7  c #6D2E08",
"8  c #622909",
"9  c #712E06",
"0  c #693003",
"q  c #743205",
"w  c #7C3403",
"e  c #773D0F",
"r  c #7D3B0B",
"t  c #793607",
"y  c #652A14",
"u  c #702E1A",
"i  c #623F1F",
"p  c #6A3718",
"a  c #773E13",
"s  c #7A3C10",
"d  c #413938",
"f  c #513E37",
"g  c #673E27",
"h  c #004605",
"j  c #08490C",
"k  c #1A400C",
"l  c #025707",
"z  c #005905",
"x  c #03520A",
"c  c #045C0A",
"v  c #055815",
"b  c #354B1A",
"n  c #245411",
"m  c #285F1C",
"M  c #2C511C",
"N  c #385611",
"B  c #375814",
"V  c #06611E",
"C  c #106E19",
"Z  c #087517",
"A  c #0E7C14",
"S  c #296219",
"D  c #237A17",
"F  c #055A26",
"G  c #1C4C3B",
"H  c #225F24",
"J  c #45403B",
"K  c #183F49",
"L  c #1A474E",
"P  c #275D68",
"I  c #16656D",
"U  c #176E74",
"Y  c #2A6167",
"T  c #256770",
"R  c #813502",
"E  c #853C04",
"W  c #89390F",
"Q  c #893A03",
"!  c #833C13",
"~  c #85400A",
"^  c #934505",
"/  c #994707",
"(  c #974A06",
")  c #9B4D05",
"_  c #964608",
"`  c #934908",
"'  c #A24D03",
"]  c #A35201",
"[  c #8E462D",
"{  c #9E5134",
"}  c #A05D3F",
"|  c #AD5F3A",
" . c #9D633C",
".. c #D3673F",
"X. c #F3763C",
"o. c #9A5C45",
"O. c #A85D44",
"+. c #996A54",
"@. c #B96746",
"#. c #A37848",
"$. c #AF7A48",
"%. c #A87244",
"&. c #AB6853",
"*. c #B76C53",
"=. c #B77356",
"-. c #AC7961",
";. c #B47A62",
":. c #C66B4A",
">. c #C5734B",
",. c #DB734B",
"<. c #C77E50",
"1. c #C97D55",
"2. c #CD7A5A",
"3. c #CD7656",
"4. c #D77D5B",
"5. c #CC7E61",
"6. c #11811F",
"7. c #138C23",
"8. c #2C943B",
"9. c #35A74A",
"0. c #31A849",
"q. c #4C8D40",
"w. c #5C8F4C",
"e. c #50924C",
"r. c #5F9D52",
"t. c #639B51",
"y. c #B5856A",
"u. c #B8896C",
"i. c #F7864B",
"p. c #F9824A",
"a. c #F48A51",
"s. c #D58660",
"d. c #D88D6C",
"f. c #CD8F77",
"g. c #D3967B",
"h. c #EB986F",
"j. c #F0956C",
"k. c #E89B71",
"l. c #F49C72",
"z. c #E0A06F",
"x. c #E3A574",
"c. c #FCA376",
"v. c #F5A37D",
"b. c #FCA67B",
"n. c #FBAA7B",
"m. c #DE9F82",
"M. c #D3A590",
"N. c #E4A280",
"B. c #FEAD84",
"V. c #F3AA8A",
"C. c #EEB99D",
"Z. c #DBC6B8",
"A. c #E8CDBD",
"S. c #CCC8C4",
"D. c #D7CAC2",
"F. c #DDD7D1",
"G. c #E6D7CF",
"H. c #E6DAD1",
"J. c #F8E5D6",
"K. c #F3EEED",
"L. c None",
/* pixels */
"L.L.L.L.L.L.L.L.L.L.L.L.L.L.L.L.L.L.L.L.L.L.L.L.L.L.L.L.L.L.L.L.",
"L.L.L.L.L.L.L.L.L.L.L.L.L.L.L.L.L.L.L.L.L.L.L.L.L.L.L.L.L.L.L.L.",
"L.L.L.L.L.L.L.L.L.L.L.L.L.L.L.L.L.L.L.L.L.L.L.L.L.L.L.L.L.L.L.L.",
"L.L.L.L.L.L.L.L.L.L.L.L.L.L.L.L.L.L.L.L.L.L.L.L.L.L.L.L.L.L.L.L.",
"L.L.L.L.L.L.L.L.L.L.L.L.L.L.L.L.L.L.L.L.L.L.L.L.L.L.L.L.L.L.L.L.",
"L.L.L.L.L.L.L.L.L.L.L.L.L.L.L.L.L.L.L.L.L.L.L.L.L.L.L.L.L.L.L.L.",
"L.L.L.L.L.L.L.L.L.L.L.L.L.L.L.L.L.L.L.L.L.L.L.L.L.L.L.L.L.L.L.L.",
"L.L.L.L.L.L.L.L.L.L.L.L.L.L.L.L.L.L.e E s L.L.L.L.L.L.L.L.L.L.L.",
"L.L.L.L.L.L.L.L.L.L.L.L.L.L.a r r r ( ' ) ~ L.L.L.L.L.L.L.L.L.L.",
"L.L.L.L.L.L.L.L.L.L.L.L.r E ` ( _ R Q ) ] ) ~ L.L.L.L.L.L.L.L.L.",
"L.L.L.L.L.L.L.L.L.L.L.~ ( / Q R R w w E ) ] ) e L.L.L.L.L.L.L.L.",
"L.L.L.L.L.L.L.L.L.L.p ^ w w R w w w 9 9 q ^ ( a L.L.L.L.L.L.L.L.",
"L.L.L.L.L.L.L.L.L.L.> w w R R w t 9 > ; ; q r L.L.L.L.L.L.L.L.L.",
"L.L.L.L.L.L.L.L.L.: 7 R R R q 8 4 g ;.=.o.L.L.L.L.L.L.L.L.L.L.L.",
"L.L.L.L.L.L.L.L.L.- q t t w 2 -.D.S.Z.M.D.K.L.L.L.L.L.L.L.L.L.L.",
"L.L.L.L.L.L.L.L.L.- 7 , ; 0 1 f.F.* f y.d S.L.L.L.L.L.L.L.L.L.L.",
"L.L.L.L.L.L.L.L.L.  y [ < 8 1 m.F.& f u.% S.g.L.L.L.L.L.L.L.L.L.",
"L.L.L.L.L.L.L.L.L.L.O.2.{ u p N.J.H.A.C.G.J.V.3.L.L.L.L.L.L.L.L.",
"L.L.L.L.L.L.L.L.L.L.&.2.@.5.d.v.B.n.c.c.b.v.l.2.L.L.L.L.L.L.L.L.",
"L.L.L.L.L.L.L.L.L.L.L.*.5.s.v.B.b.a.i.p.X.,.>.L.L.L.L.L.L.L.L.L.",
"L.L.L.L.L.L.L.L.L.L.L.L.} | h.b.b.c.c.j.:.L.L.L.L.L.L.L.L.L.L.L.",
"L.L.L.L.L.L.L.L.L.L.L.j n N %.>.<.<.1.#.B + L.L.L.L.L.L.L.L.L.L.",
"L.L.L.L.L.L.L.L.L.L.O x z l n b w.r.t.q.c x o L.L.L.L.L.L.L.L.L.",
"L.L.L.L.L.L.L.L.L.L.X z z l h C 7.7.7.6.c z X L.L.L.L.L.L.L.L.L.",
"L.L.L.L.L.L.L.L.L.L.$ m S m M e.9.0.9.8.c x k L.L.L.L.L.L.L.L.L.",
"L.L.L.L.L.L.L.L.L.L.=.z.x.x.k.$.D A A Z v b  .L.L.L.L.L.L.L.L.L.",
"L.L.L.L.L.L.L.L.L.L.2.l.B.B.b.>.H V V F G y.2.L.L.L.L.L.L.L.L.L.",
"L.L.L.L.L.L.L.L.L.L.L.4.l.l.h.+.Y I U I L +.L.L.L.L.L.L.L.L.L.L.",
"L.L.L.L.L.L.L.L.L.L.L.L.:...@.J K L T P K L.L.L.L.L.L.L.L.L.L.L.",
"L.L.L.L.L.L.L.L.L.L.L.L.y W ! 3 L.# i 5 @ L.L.L.L.L.L.L.L.L.L.L.",
"L.L.L.L.L.L.L.L.L.L.L.- 6 q 7 ; L.: 9 q 6 : L.L.L.L.L.L.L.L.L.L.",
"L.L.L.L.L.L.L.L.L.L.L.= ; ; ; = L.. ; ; ;   L.L.L.L.L.L.L.L.L.L."
};
