/* XPM */
static const char *p_wait1[] = {
/* columns rows colors chars-per-pixel */
"32 32 169 2 ",
"   c #3F190A",
".  c #3B1805",
"X  c #033A04",
"o  c #043909",
"O  c #0D3706",
"+  c #1C3A0C",
"@  c #372717",
"#  c #3A2410",
"$  c #2F3232",
"%  c #383231",
"&  c #441A05",
"*  c #4B1904",
"=  c #481D08",
"-  c #441A07",
";  c #561F09",
":  c #591E09",
">  c #501B02",
",  c #5B260D",
"<  c #5D2205",
"1  c #402611",
"2  c #4B2310",
"3  c #5A3C1B",
"4  c #6C2D07",
"5  c #60260D",
"6  c #652C09",
"7  c #6C2D0A",
"8  c #722F04",
"9  c #6B3006",
"0  c #723107",
"q  c #7C3502",
"w  c #7F3C06",
"e  c #723309",
"r  c #753C0E",
"t  c #7A3C0D",
"y  c #642A14",
"u  c #6E2C17",
"i  c #69301A",
"p  c #713714",
"a  c #763F11",
"s  c #7A3D11",
"d  c #423F3E",
"f  c #4A3931",
"g  c #623C23",
"h  c #04450B",
"j  c #044E0C",
"k  c #015504",
"l  c #005805",
"z  c #045509",
"x  c #045A09",
"c  c #14551B",
"v  c #214F0D",
"b  c #27570F",
"n  c #264011",
"m  c #2E4713",
"M  c #285E19",
"N  c #2D521D",
"B  c #05611C",
"V  c #077F14",
"C  c #097318",
"Z  c #296017",
"A  c #26631B",
"S  c #267618",
"D  c #28731D",
"F  c #347C1E",
"G  c #075A24",
"H  c #1D5C28",
"J  c #1B473F",
"K  c #377121",
"L  c #42403E",
"P  c #54423B",
"I  c #193E47",
"U  c #14464C",
"Y  c #134452",
"T  c #285E64",
"R  c #16656C",
"E  c #166F72",
"W  c #376165",
"Q  c #2A6471",
"!  c #813502",
"~  c #833903",
"^  c #893C03",
"/  c #843C0D",
"(  c #853C11",
")  c #82410C",
"_  c #954906",
"`  c #9B4C05",
"'  c #904508",
"]  c #954605",
"[  c #A04C05",
"{  c #A45202",
"}  c #8A452C",
"|  c #885535",
" . c #955C36",
".. c #A14F32",
"X. c #AE5E3B",
"o. c #9A633A",
"O. c #A56A3A",
"+. c #D3683E",
"@. c #A45D41",
"#. c #8E6242",
"$. c #9B714D",
"%. c #926552",
"&. c #AA684F",
"*. c #A9644B",
"=. c #BA6545",
"-. c #A67D43",
";. c #A36B5C",
":. c #B16852",
">. c #A9775E",
",. c #C76D41",
"<. c #C86C42",
"1. c #C6694B",
"2. c #C5734B",
"3. c #D8734E",
"4. c #CA7758",
"5. c #C27F5F",
"6. c #CC795A",
"7. c #CC7355",
"8. c #DD7850",
"9. c #D17D5C",
"0. c #D17556",
"q. c #F67744",
"w. c #12811F",
"e. c #188B28",
"r. c #148821",
"t. c #28973A",
"y. c #30A845",
"u. c #35A64A",
"i. c #39A54B",
"p. c #4B9649",
"a. c #B98672",
"s. c #F7864C",
"d. c #FB8149",
"f. c #E5895F",
"g. c #F98855",
"h. c #C78568",
"j. c #D38A65",
"k. c #C89274",
"l. c #E49167",
"z. c #F59A6B",
"x. c #E89972",
"c. c #F59C73",
"v. c #E2A06E",
"b. c #E3A574",
"n. c #FCA674",
"m. c #FFA77E",
"M. c #FCAB7E",
"N. c #F5A67C",
"B. c #CF9880",
"V. c #DBA080",
"C. c #D4A290",
"Z. c #E4A180",
"A. c #FCAC83",
"S. c #F3A986",
"D. c #F9B18C",
"F. c #EFB79E",
"G. c #CCC4BF",
"H. c #DBC8BF",
"J. c #D7C5B8",
"K. c #E4C9B8",
"L. c #CEC7C3",
"P. c #D0D0CF",
"I. c #DFD6D2",
"U. c #E0D7CE",
"Y. c #E1D4C5",
"T. c #F8E5D8",
"R. c #F4E5D6",
"E. c #F2EDE9",
"W. c None",
/* pixels */
"W.W.W.W.W.W.W.W.W.W.W.W.W.W.W.W.W.W.W.W.W.W.W.W.W.W.W.W.W.W.W.W.",
"W.W.W.W.W.W.W.W.W.W.W.W.W.W.W.W.W.W.W.W.W.W.W.W.W.W.W.W.W.W.W.W.",
"W.W.W.W.W.W.W.W.W.W.W.W.W.W.W.W.W.W.W.W.W.W.W.W.W.W.W.W.W.W.W.W.",
"W.W.W.W.W.W.W.W.W.W.W.W.W.W.W.W.W.W.W.W.W.W.W.W.W.W.W.W.W.W.W.W.",
"W.W.W.W.W.W.W.W.W.W.W.W.W.W.W.W.W.W.W.W.W.W.W.W.W.W.W.W.W.W.W.W.",
"W.W.W.W.W.W.W.W.W.W.W.W.W.W.W.W.W.W.W.W.W.W.W.W.W.W.W.W.W.W.W.W.",
"W.W.W.W.W.W.W.W.W.W.W.W.W.W.W.W.W.W.r t r W.W.W.W.W.W.W.W.W.W.W.",
"W.W.W.W.W.W.W.W.W.W.W.W.W.W.t w w ~ ` [ ` ) W.W.W.W.W.W.W.W.W.W.",
"W.W.W.W.W.W.W.W.W.W.W.W.s / _ ` _ ! ^ ` { ` ) W.W.W.W.W.W.W.W.W.",
"W.W.W.W.W.W.W.W.W.W.W.) ` _ ~ ~ ~ q q ^ ` { ` a W.W.W.W.W.W.W.W.",
"W.W.W.W.W.W.W.W.W.W.p ' ~ ~ q ! q ! 8 8 q ] ` t W.W.W.W.W.W.W.W.",
"W.W.W.W.W.W.W.W.W.W.< q q q q 8 9 7 i y 5 p r W.W.W.W.W.W.W.W.W.",
"W.W.W.W.W.W.W.W.W.= e q q ! e : 2 g h.h.*.W.W.W.W.W.W.W.W.W.W.W.",
"W.W.W.W.W.W.W.W.W.* q q q q 5 >.J.G.J.C.H.E.W.W.W.W.W.W.W.W.W.W.",
"W.W.W.W.W.W.W.W.W.= 4 : > 4 , k.I.d P a.d P.W.W.W.W.W.W.W.W.W.W.",
"W.W.W.W.W.W.W.W.W.  y } ; 6 , V.I.$ f a.% L.B.W.W.W.W.W.W.W.W.W.",
"W.W.W.W.W.W.W.W.W.W.@.4...u i Z.T.U.K.F.Y.R.S.0.W.W.W.W.W.W.W.W.",
"W.W.W.W.W.W.W.W.W.W.&.6.=.5.j.N.D.A.M.n.A.S.c.6.W.W.W.W.W.W.W.W.",
"W.W.W.W.W.W.W.W.W.W.W.:.9.j.N.A.n.g.s.d.q.3.7.W.W.W.W.W.W.W.W.W.",
"W.W.W.W.W.W.W.W.W.W.W.W.|  .l.c.c.z.z.f.X.W.W.W.W.W.W.W.W.W.W.W.",
"W.W.W.W.W.W.W.W.W.W.W.W.O v O.<.<.,.<.o.+ W.W.W.W.W.W.W.W.W.W.W.",
"W.W.W.W.W.W.W.W.W.W.W.o j z b m K F F D z o W.W.W.W.W.W.W.W.W.W.",
"W.W.W.W.W.W.W.W.W.W.W.X z l z h t.y.u.t.x X W.W.W.W.W.W.W.W.W.W.",
"W.W.W.W.W.W.W.W.W.W.W.X l l k h r.r.e.w.l o W.W.W.W.W.W.W.W.W.W.",
"W.W.W.W.W.W.W.W.W.W.W.n Z A M N p.i.u.t.x + W.W.W.W.W.W.W.W.W.W.",
"W.W.W.W.W.W.W.W.W.W.W.2.v.b.b.x.-.S V C c #.W.W.W.W.W.W.W.W.W.W.",
"W.W.W.W.W.W.W.W.W.W.W.8.m.A.M.c.$.H B G J %.W.W.W.W.W.W.W.W.W.W.",
"W.W.W.W.W.W.W.W.W.W.W.9.z.c.x.;.W R E R Y W.W.W.W.W.W.W.W.W.W.W.",
"W.W.W.W.W.W.W.W.W.W.W.W.1.+.=.L U U Q T I W.W.W.W.W.W.W.W.W.W.W.",
"W.W.W.W.W.W.W.W.W.W.W.W.y / ( 1 W.@ g 3 # W.W.W.W.W.W.W.W.W.W.W.",
"W.W.W.W.W.W.W.W.W.W.W.= 6 0 7 * W.* 8 0 7 - W.W.W.W.W.W.W.W.W.W.",
"W.W.W.W.W.W.W.W.W.W.W.& * * * & W.- * * * . W.W.W.W.W.W.W.W.W.W."
};
