/* XPM */
static const char *wall[] = {
/* columns rows colors chars-per-pixel */
"32 32 69 1 ",
"  c black",
". c #010101",
"X c #020202",
"o c gray1",
"O c #040404",
"+ c gray2",
"@ c #060606",
"# c #2A2A2A",
"$ c #2C2C2C",
"% c #2D2D2D",
"& c gray18",
"* c #2F2F2F",
"= c gray19",
"- c #313131",
"; c #323232",
": c gray20",
"> c #343434",
", c #353535",
"< c gray21",
"1 c #373737",
"2 c gray22",
"3 c #393939",
"4 c #3A3A3A",
"5 c gray23",
"6 c gray24",
"7 c gray25",
"8 c gray26",
"9 c #444444",
"0 c gray27",
"q c #464646",
"w c #494949",
"e c gray29",
"r c #4B4B4B",
"t c #4C4C4C",
"y c gray30",
"u c #505050",
"i c #515151",
"p c #777777",
"a c #797979",
"s c gray48",
"d c #7B7B7B",
"f c #7C7C7C",
"g c gray49",
"h c #7E7E7E",
"j c gray50",
"k c #808080",
"l c #818181",
"z c gray51",
"x c #838383",
"c c #848484",
"v c gray52",
"b c #868686",
"n c gray53",
"m c #898989",
"M c gray77",
"N c gray78",
"B c gray79",
"V c #CACACA",
"C c #CBCBCB",
"Z c gray80",
"A c #CDCDCD",
"S c #CECECE",
"D c gray82",
"F c LightGray",
"G c #D5D5D5",
"H c #FBFBFB",
"J c #FDFDFD",
"K c white",
"L c None",
/* pixels */
"LL+oooooooooooooooooooooooooooJL",
"LoJBBDNAAAAAAAAAAAAAAAAABAGBNAoJ",
"oHxsxxjxjjjjjjjjjjjjjjjjjxsccjyo",
"+Bxcxsjcxxxxxxxxxxxxxxxxjxxsjxr+",
"oDpxxxxsjjjjjjjxxxxxjjxxcjxccjro",
"oDcjcxxxjjjjjjxxxxxxjjxxsjxxssro",
"+Bjpxjxjjjxjxxxjxxjjjjxxxmjjjc8o",
"oBcxxjxxjjxxxxxjxjjjjjxxxxjxxsio",
"oAjjxxxxxxjjjjjjxxxjjjxxjxjxjjro",
"oAjjjxxxxxjxjjjjxxxjjjxxjxjxjjro",
"oAjjjjxxxxxxxxjjxxxxjjjxjxjxjjro",
"oAjjjjxxxxxxxxxxxxxjjjjjjxjxjjro",
"oAxxjjjxxxxxxxxxjjjjjjxjjxjxjjro",
"oAxxjjjxxxxxxxjxjjjjxxxjjxjxjjro",
"oAjjjjjjxxjjjjjjjjxxxxjjjxjxjjro",
"oAjjjjjxxxjjjjjjjjxxxxjxjxjxjxro",
"oAjjjjjjjjjxxxjjjjxxxxjjjxjxjxro",
"oAjjjjjxjjxxxxjjjjxxxxjjjxjxjxro",
"oAxxxxjxjjjjxxxjjxxxjjjjjxjxjjro",
"oAxxxxxxjjjjxxxjjjxxjjjjjxjxjjro",
"oAxxxxxjxxxxjjjxjjjjjxxxjxjxjxro",
"oAxxxxjjxxxxjjjxxjjjxxxxjxjxjxro",
"oAxxjjjjxxjjjjxxxxjjjxxxjxjxjjro",
"oAjjjjjjxxxjjjxxxxjjjxxxjxjxjjro",
"oBxxjcxxxxxxxxxxxxxxxxxxjcjjxjqo",
"o>6ry6yqrrrrrrrrrrrrrrrrrqy8rr>o",
"o>>=>2=>=>>>>>>>====>>>>=>$>$>>o",
"o=>2$>$===>>>>>>====>>>>==>=2>$+",
"o>=$>>2>================2==$$=>o",
"o>>==>#$>=>>>>>>>>>>>>>>=>=>2>=o",
"Lo>=>$22=================2=>=$+L",
"LLoooooooooooooooooooooo+oooooLL"
};
